<svg xmlns="http://www.w3.org/2000/svg" xmlns:xlink="http://www.w3.org/1999/xlink" contentStyleType="text/css" data-diagram-type="DESCRIPTION" height="1021px" preserveAspectRatio="none" style="width:1082px;height:1021px;background:#F8FAFC;" version="1.1" viewBox="0 0 1082 1021" width="1082px" zoomAndPan="magnify"><?plantuml 1.2026.3beta6?><defs/><g><rect fill="#F8FAFC" height="1021" style="stroke:none;stroke-width:1;" width="1082" x="0" y="0"/><!--cluster 4. ?valuation & Notation--><g class="cluster" data-qualified-name="4. .valuation . Notation" data-source-line="10" id="ent0004"><rect fill="none" height="732" rx="2.5" ry="2.5" style="stroke:#181818;stroke-width:1;" width="919.17" x="149.71" y="116.65"/><text fill="#000000" font-family="Arial" font-size="14" font-weight="700" lengthAdjust="spacing" textLength="193.8672" x="512.3614" y="131.6451">4. &#201;valuation &amp; Notation</text></g><!--entity UC4_1--><g class="entity" data-qualified-name="4. .valuation . Notation.UC4_1" data-source-line="11" id="ent0005"><ellipse cx="357.303" cy="192.6466" fill="#F1F1F1" rx="191.583" ry="40.7166" style="stroke:#181818;stroke-width:0.5;"/><text fill="#000000" font-family="Arial" font-size="14" lengthAdjust="spacing" textLength="368.2588" x="173.1736" y="197.295">4.1 T&#233;l&#233;charger/Importer preuves (Certifs/Dipl&#244;mes)</text></g><!--entity UC4_2--><g class="entity" data-qualified-name="4. .valuation . Notation.UC4_2" data-source-line="13" id="ent0006"><ellipse cx="863.379" cy="770.6458" fill="#F1F1F1" rx="155.479" ry="33.4958" style="stroke:#181818;stroke-width:0.5;"/><text fill="#000000" font-family="Arial" font-size="14" lengthAdjust="spacing" textLength="293.8701" x="716.4439" y="775.2942">4.2 Attribuer une note (1-5&#9733;) au candidat</text></g><!--entity UC4_3--><g class="entity" data-qualified-name="4. .valuation . Notation.UC4_3" data-source-line="14" id="ent0007"><ellipse cx="357.2994" cy="405.6499" fill="#F1F1F1" rx="95.6494" ry="21.5299" style="stroke:#181818;stroke-width:0.5;"/><text fill="#000000" font-family="Arial" font-size="14" lengthAdjust="spacing" textLength="166.4209" x="274.0889" y="410.2983">4.3 Modifier sa notation</text></g><!--entity UC4_4--><g class="entity" data-qualified-name="4. .valuation . Notation.UC4_4" data-source-line="15" id="ent0008"><ellipse cx="357.2988" cy="503.6458" fill="#F1F1F1" rx="169.5788" ry="36.3158" style="stroke:#181818;stroke-width:0.5;"/><text fill="#000000" font-family="Arial" font-size="14" lengthAdjust="spacing" textLength="323.0391" x="195.7792" y="508.2942">4.4 Voir la note moyenne multi-collaborateurs</text></g><!--entity UC4_5--><g class="entity" data-qualified-name="4. .valuation . Notation.UC4_5" data-source-line="16" id="ent0009"><ellipse cx="357.295" cy="609.645" fill="#F1F1F1" rx="134.825" ry="29.365" style="stroke:#181818;stroke-width:0.5;"/><text fill="#000000" font-family="Arial" font-size="14" lengthAdjust="spacing" textLength="250.7422" x="231.9239" y="614.2934">4.5 V&#233;rifier qualification Exp&#233;rience</text></g><!--entity UC4_6--><g class="entity" data-qualified-name="4. .valuation . Notation.UC4_6" data-source-line="17" id="ent0010"><ellipse cx="357.2998" cy="707.652" fill="#F1F1F1" rx="131.6598" ry="28.732" style="stroke:#181818;stroke-width:0.5;"/><text fill="#000000" font-family="Arial" font-size="14" lengthAdjust="spacing" textLength="244.0771" x="235.2612" y="712.3004">4.6 V&#233;rifier qualification Formation</text></g><!--entity UC4_7--><g class="entity" data-qualified-name="4. .valuation . Notation.UC4_7" data-source-line="18" id="ent0011"><ellipse cx="357.3026" cy="804.6505" fill="#F1F1F1" rx="128.2026" ry="28.0405" style="stroke:#181818;stroke-width:0.5;"/><text fill="#000000" font-family="Arial" font-size="14" lengthAdjust="spacing" textLength="236.7764" x="238.9144" y="809.299">4.7 V&#233;rifier qualification Certificat</text></g><!--entity UC4_8--><g class="entity" data-qualified-name="4. .valuation . Notation.UC4_8" data-source-line="19" id="ent0012"><ellipse cx="863.3812" cy="642.6502" fill="#F1F1F1" rx="189.5012" ry="40.3002" style="stroke:#181818;stroke-width:0.5;"/><text fill="#000000" font-family="Arial" font-size="14" lengthAdjust="spacing" textLength="363.9932" x="681.3846" y="647.2987">4.8 T&#233;l&#233;charger preuve de qualification du candidat</text></g><!--entity UC4_9--><g class="entity" data-qualified-name="4. .valuation . Notation.UC4_9" data-source-line="20" id="ent0013"><ellipse cx="357.2997" cy="308.6499" fill="#F1F1F1" rx="165.8497" ry="35.5699" style="stroke:#181818;stroke-width:0.5;"/><text fill="#000000" font-family="Arial" font-size="14" lengthAdjust="spacing" textLength="315.3418" x="199.6288" y="313.2984">4.9 Ajouter une note de v&#233;rification textuelle</text></g><!--entity URH--><g class="entity" data-qualified-name="URH" data-source-line="7" id="ent0002"><ellipse cx="54.3574" cy="507" fill="#F1F1F1" rx="8" ry="8" style="stroke:#181818;stroke-width:0.5;"/><path d="M54.3574,515 L54.3574,542 M41.3574,523 L67.3574,523 M54.3574,542 L41.3574,557 M54.3574,542 L67.3574,557" fill="none" style="stroke:#181818;stroke-width:0.5;"/><text fill="#000000" font-family="Arial" font-size="14" lengthAdjust="spacing" textLength="96.7148" x="6" y="571.4951">Utilisateur RH</text></g><!--entity C--><g class="entity" data-qualified-name="C" data-source-line="8" id="ent0003"><ellipse cx="54.3595" cy="14" fill="#F1F1F1" rx="8" ry="8" style="stroke:#181818;stroke-width:0.5;"/><path d="M54.3595,22 L54.3595,49 M41.3595,30 L67.3595,30 M54.3595,49 L41.3595,64 M54.3595,49 L67.3595,64" fill="none" style="stroke:#181818;stroke-width:0.5;"/><text fill="#000000" font-family="Arial" font-size="14" lengthAdjust="spacing" textLength="62.959" x="22.88" y="78.4951">Candidat</text></g><!--link C to UC4_1--><g class="link" data-entity-1="ent0003" data-entity-2="ent0005" data-link-type="dependency" data-source-line="23" id="lnk14"><path d="M86.15,58.9 C131.46,81.33 212.1527,121.2883 275.0027,152.3983" fill="none" id="C-to-UC4_1" style="stroke:#181818;stroke-width:1;"/><polygon fill="#181818" points="280.38,155.06,274.0885,147.4826,275.8989,152.8419,270.5396,154.6523,280.38,155.06" style="stroke:#181818;stroke-width:1;"/></g><!--link URH to UC4_2--><g class="link" data-entity-1="ent0002" data-entity-2="ent0006" data-link-type="dependency" data-source-line="25" id="lnk15"><path d="M60.06,575.02 C70.33,651.56 97.41,818.83 141.71,852.65 C342.65,1006.04 666.247,871.1204 798.887,804.5804" fill="none" id="URH-to-UC4_2" style="stroke:#181818;stroke-width:1;"/><polygon fill="#181818" points="804.25,801.89,794.4119,802.3503,799.7808,804.132,797.9991,809.5009,804.25,801.89" style="stroke:#181818;stroke-width:1;"/></g><!--link URH to UC4_3--><g class="link" data-entity-1="ent0002" data-entity-2="ent0007" data-link-type="dependency" data-source-line="26" id="lnk16"><path d="M83.35,498.41 C98.61,480.29 119,459.97 141.71,447.65 C179.09,427.38 218.8865,417.6317 258.5265,412.1517" fill="none" id="URH-to-UC4_3" style="stroke:#181818;stroke-width:1;"/><polygon fill="#181818" points="264.47,411.33,255.007,408.6002,259.5171,412.0147,256.1026,416.5248,264.47,411.33" style="stroke:#181818;stroke-width:1;"/></g><!--link URH to UC4_4--><g class="link" data-entity-1="ent0002" data-entity-2="ent0008" data-link-type="dependency" data-source-line="27" id="lnk17"><path d="M103.04,531.42 C131.13,528.34 162.4158,524.9145 199.6858,520.8245" fill="none" id="URH-to-UC4_4" style="stroke:#181818;stroke-width:1;"/><polygon fill="#181818" points="205.65,520.17,196.2674,517.1756,200.6798,520.7154,197.14,525.1279,205.65,520.17" style="stroke:#181818;stroke-width:1;"/></g><!--link URH to UC4_5--><g class="link" data-entity-1="ent0002" data-entity-2="ent0009" data-link-type="dependency" data-source-line="28" id="lnk18"><path d="M102.8,549.57 C115.43,552.93 129.07,556.49 141.71,559.65 C181.15,569.49 218.9632,578.433 256.5532,587.093" fill="none" id="URH-to-UC4_5" style="stroke:#181818;stroke-width:1;"/><polygon fill="#181818" points="262.4,588.44,254.5277,582.5216,257.5276,587.3175,252.7317,590.3174,262.4,588.44" style="stroke:#181818;stroke-width:1;"/></g><!--link URH to UC4_6--><g class="link" data-entity-1="ent0002" data-entity-2="ent0010" data-link-type="dependency" data-source-line="29" id="lnk19"><path d="M73.11,575.2 C87.7,602.62 110.98,638.09 141.71,658.65 C169.58,677.3 197.7018,687.6234 230.3218,694.8434" fill="none" id="URH-to-UC4_6" style="stroke:#181818;stroke-width:1;"/><polygon fill="#181818" points="236.18,696.14,228.2571,690.2896,231.2982,695.0595,226.5282,698.1005,236.18,696.14" style="stroke:#181818;stroke-width:1;"/></g><!--link URH to UC4_7--><g class="link" data-entity-1="ent0002" data-entity-2="ent0011" data-link-type="dependency" data-source-line="30" id="lnk20"><path d="M59.51,575.18 C66.97,624.77 87.34,710.07 141.71,756.65 C167.01,778.32 194.1258,789.5307 226.6058,796.5607" fill="none" id="URH-to-UC4_7" style="stroke:#181818;stroke-width:1;"/><polygon fill="#181818" points="232.47,797.83,224.5199,792.0166,227.5832,796.7723,222.8275,799.8356,232.47,797.83" style="stroke:#181818;stroke-width:1;"/></g><!--link URH to UC4_8--><g class="link" data-entity-1="ent0002" data-entity-2="ent0012" data-link-type="dependency" data-source-line="31" id="lnk21"><path d="M57.61,498 C63.87,405.88 84.92,177.61 141.71,131.65 C282.39,17.81 390.97,43.27 548.88,131.65 C734.84,235.73 822.2771,494.4181 850.4771,596.1381" fill="none" id="URH-to-UC4_8" style="stroke:#181818;stroke-width:1;"/><polygon fill="#181818" points="852.08,601.92,853.5302,592.1785,850.7442,597.1017,845.821,594.3157,852.08,601.92" style="stroke:#181818;stroke-width:1;"/></g><!--link URH to UC4_9--><g class="link" data-entity-1="ent0002" data-entity-2="ent0013" data-link-type="dependency" data-source-line="32" id="lnk22"><path d="M64.41,498.36 C75.78,458.76 99.15,398.03 141.71,363.65 C162.58,346.8 182.2876,336.8438 208.2376,328.6638" fill="none" id="URH-to-UC4_9" style="stroke:#181818;stroke-width:1;"/><polygon fill="#181818" points="213.96,326.86,204.1738,325.7508,209.1913,328.3632,206.5789,333.3807,213.96,326.86" style="stroke:#181818;stroke-width:1;"/></g><!--link UC4_3 to UC4_2--><g class="link" data-entity-1="ent0007" data-entity-2="ent0006" data-link-type="dependency" data-source-line="34" id="lnk23"><path d="M450.05,411.17 C483.52,416.8 520.17,427.52 548.88,447.65 C613.49,492.96 611.6,525.64 643.88,597.65 C663.73,641.94 640.75,667.19 673.88,702.65 C693.48,723.62 714.397,736.0467 741.367,746.0867" fill="none" id="UC4_3-to-UC4_2" style="stroke:#181818;stroke-width:1;stroke-dasharray:7,7;"/><polygon fill="#181818" points="746.99,748.18,739.951,741.2914,742.3042,746.4356,737.16,748.7888,746.99,748.18" style="stroke:#181818;stroke-width:1;"/><text fill="#000000" font-family="Arial" font-size="13" lengthAdjust="spacing" textLength="61.1851" x="580.88" y="470.7169">&#171;extend&#187;</text></g><!--link UC4_5 to UC4_8--><g class="link" data-entity-1="ent0009" data-entity-2="ent0012" data-link-type="dependency" data-source-line="35" id="lnk24"><path d="M486.8,618.06 C546.02,621.94 611.3328,626.2182 675.8228,630.4382" fill="none" id="UC4_5-to-UC4_8" style="stroke:#181818;stroke-width:1;stroke-dasharray:7,7;"/><polygon fill="#181818" points="681.81,630.83,673.0904,626.2509,676.8207,630.5035,672.568,634.2338,681.81,630.83" style="stroke:#181818;stroke-width:1;"/><text fill="#000000" font-family="Arial" font-size="13" lengthAdjust="spacing" textLength="63.0068" x="579.88" y="620.7169">&#171;include&#187;</text></g><!--link UC4_6 to UC4_8--><g class="link" data-entity-1="ent0010" data-entity-2="ent0012" data-link-type="dependency" data-source-line="36" id="lnk25"><path d="M471.42,693.06 C538.91,684.36 619.7793,673.9374 694.4493,664.3074" fill="none" id="UC4_6-to-UC4_8" style="stroke:#181818;stroke-width:1;stroke-dasharray:7,7;"/><polygon fill="#181818" points="700.4,663.54,690.9623,660.724,695.4411,664.1795,691.9856,668.6583,700.4,663.54" style="stroke:#181818;stroke-width:1;"/><text fill="#000000" font-family="Arial" font-size="13" lengthAdjust="spacing" textLength="63.0068" x="579.88" y="667.7169">&#171;include&#187;</text></g><!--link UC4_7 to UC4_8--><g class="link" data-entity-1="ent0011" data-entity-2="ent0012" data-link-type="dependency" data-source-line="37" id="lnk26"><path d="M447.06,784.29 C479.32,776.36 515.94,766.76 548.88,756.65 C625.01,733.29 704.1975,704.2877 766.3875,680.4477" fill="none" id="UC4_7-to-UC4_8" style="stroke:#181818;stroke-width:1;stroke-dasharray:7,7;"/><polygon fill="#181818" points="771.99,678.3,762.1545,677.7865,767.3213,680.0897,765.0181,685.2565,771.99,678.3" style="stroke:#181818;stroke-width:1;"/><text fill="#000000" font-family="Arial" font-size="13" lengthAdjust="spacing" textLength="63.0068" x="579.88" y="724.7169">&#171;include&#187;</text></g><?plantuml-src VL9BRXD14DttAKf6Gid2JcoFnpQAB5a3LbYGHKIoHUMPijEuftleZnM4M6R13RY2zznWRfAJfEV3u4QONRz-zTuhLPNPSLcWnXpMcEwsMZcP9Kee3QzMizLobJ3JLMIqGIViIabxWpd1KdCKHxnK6Hag8Bey-jGeTzLdVCa4RInO1Pfl7onaN5DgkPACOMfzOE_ESi4DMd8QRgzxW0RkRgz_imdAZ6Tew_-4iKgDSYi8Uj40oXzx50uhFtWDDyhMpnvyOm3EK8gchXl2n_8WoaFwW7fB-k9zNYXjIKEXoUt9m5b2slADkNZB2r7-oicSDuqaqQUXzmhjHh2qLlErymvEaf-09JWRzYVFFv_E0HsanqrN7gFGO0mVLCOttEiDLlAsxRPw75P7SA-u1e5DKAw-alIfkLyAxwTA25mhNS_FT1PHQ361-_AWcyGl3eL_fStKtZqM5KCofKuy2SNnIV5AwJniFGwbqvFIPk0LwhJJK3iBbzRkof_ZNqxPF-Oz2wtciFoid3rUbxVPDwsrDfOUhICX_enXphupba2_lsZlWFcxxE0eGEC0HG6Q12WEq3H0im3DVM1b3OD16mbluEhAzqaoMongSjAHivhaCXKkevQD_yjEJx4l?></g></svg>