<svg xmlns="http://www.w3.org/2000/svg" xmlns:xlink="http://www.w3.org/1999/xlink" contentStyleType="text/css" data-diagram-type="DESCRIPTION" height="2058px" preserveAspectRatio="none" style="width:1380px;height:2058px;background:#F8FAFC;" version="1.1" viewBox="0 0 1380 2058" width="1380px" zoomAndPan="magnify"><?plantuml 1.2026.3beta6?><defs/><g><rect fill="#F8FAFC" height="2058" style="stroke:none;stroke-width:1;" width="1380" x="0" y="0"/><!--cluster 6. Planification & Entretiens--><g class="cluster" data-qualified-name="6. Planification . Entretiens" data-source-line="14" id="ent0008"><rect fill="none" height="1424" rx="2.5" ry="2.5" style="stroke:#181818;stroke-width:1;" width="988.41" x="149.71" y="7"/><text fill="#000000" font-family="Arial" font-size="14" font-weight="700" lengthAdjust="spacing" textLength="222.7832" x="532.5234" y="21.9951">6. Planification &amp; Entretiens</text></g><!--entity UC6_1--><g class="entity" data-qualified-name="6. Planification . Entretiens.UC6_1" data-source-line="15" id="ent0009"><ellipse cx="371.9044" cy="75.9969" fill="#F1F1F1" rx="158.2344" ry="34.0469" style="stroke:#181818;stroke-width:0.5;"/><text fill="#000000" font-family="Arial" font-size="14" lengthAdjust="spacing" textLength="299.585" x="222.1119" y="80.6453">6.1 Planifier un entretien avec un candidat</text></g><!--entity UC6_2--><g class="entity" data-qualified-name="6. Planification . Entretiens.UC6_2" data-source-line="16" id="ent0010"><ellipse cx="371.9025" cy="184.0025" fill="#F1F1F1" rx="155.4625" ry="33.4925" style="stroke:#181818;stroke-width:0.5;"/><text fill="#000000" font-family="Arial" font-size="14" lengthAdjust="spacing" textLength="293.8359" x="224.9845" y="188.6509">6.2 Envoyer invitation entretien par Email</text></g><!--entity UC6_3--><g class="entity" data-qualified-name="6. Planification . Entretiens.UC6_3" data-source-line="17" id="ent0011"><ellipse cx="371.9029" cy="287.0006" fill="#F1F1F1" rx="134.0029" ry="29.2006" style="stroke:#181818;stroke-width:0.5;"/><text fill="#000000" font-family="Arial" font-size="14" lengthAdjust="spacing" textLength="249.0127" x="247.3965" y="291.649">6.3 Voir l'agenda des entretiens RH</text></g><!--entity UC6_4--><g class="entity" data-qualified-name="6. Planification . Entretiens.UC6_4" data-source-line="18" id="ent0012"><ellipse cx="371.9014" cy="385.9963" fill="#F1F1F1" rx="135.6314" ry="29.5263" style="stroke:#181818;stroke-width:0.5;"/><text fill="#000000" font-family="Arial" font-size="14" lengthAdjust="spacing" textLength="252.4375" x="245.6827" y="390.6447">6.4 Annuler un entretien (RH direct)</text></g><!--entity UC6_5--><g class="entity" data-qualified-name="6. Planification . Entretiens.UC6_5" data-source-line="19" id="ent0013"><ellipse cx="371.8995" cy="494.0019" fill="#F1F1F1" rx="180.9095" ry="38.5819" style="stroke:#181818;stroke-width:0.5;"/><text fill="#000000" font-family="Arial" font-size="14" lengthAdjust="spacing" textLength="346.3633" x="198.7179" y="498.6503">6.5 Cr&#233;er mod&#232;le d'&#233;valuation (Grille d'entretien)</text></g><!--entity UC6_6--><g class="entity" data-qualified-name="6. Planification . Entretiens.UC6_6" data-source-line="20" id="ent0014"><ellipse cx="371.8957" cy="602.9971" fill="#F1F1F1" rx="142.3357" ry="30.8671" style="stroke:#181818;stroke-width:0.5;"/><text fill="#000000" font-family="Arial" font-size="14" lengthAdjust="spacing" textLength="266.4922" x="238.6496" y="607.6456">6.6 G&#233;n&#233;rer questions d'entretien (IA)</text></g><!--entity UC6_7--><g class="entity" data-qualified-name="6. Planification . Entretiens.UC6_7" data-source-line="21" id="ent0015"><ellipse cx="371.9029" cy="706.0026" fill="#F1F1F1" rx="147.8629" ry="31.9726" style="stroke:#181818;stroke-width:0.5;"/><text fill="#000000" font-family="Arial" font-size="14" lengthAdjust="spacing" textLength="278.0313" x="232.8873" y="710.651">6.7 Remplir grille d'&#233;valuation en direct</text></g><!--entity UC6_8--><g class="entity" data-qualified-name="6. Planification . Entretiens.UC6_8" data-source-line="22" id="ent0016"><ellipse cx="912.6087" cy="724.0037" fill="#F1F1F1" rx="209.5187" ry="44.3037" style="stroke:#181818;stroke-width:0.5;"/><text fill="#000000" font-family="Arial" font-size="14" lengthAdjust="spacing" textLength="404.9199" x="710.1487" y="728.6522">6.8 Synchroniser &#233;v&#233;nements Calendrier (RH &amp; Candidat)</text></g><!--entity UC6_9--><g class="entity" data-qualified-name="6. Planification . Entretiens.UC6_9" data-source-line="24" id="ent0017"><ellipse cx="371.9021" cy="810.9984" fill="#F1F1F1" rx="155.4921" ry="33.4984" style="stroke:#181818;stroke-width:0.5;"/><text fill="#000000" font-family="Arial" font-size="14" lengthAdjust="spacing" textLength="293.8975" x="224.9534" y="815.6469">6.9 Voir la liste de ses entretiens planifi&#233;s</text></g><!--entity UC6_10--><g class="entity" data-qualified-name="6. Planification . Entretiens.UC6_10" data-source-line="25" id="ent0018"><ellipse cx="371.9038" cy="918.0048" fill="#F1F1F1" rx="157.6738" ry="33.9348" style="stroke:#181818;stroke-width:0.5;"/><text fill="#000000" font-family="Arial" font-size="14" lengthAdjust="spacing" textLength="298.4229" x="222.6923" y="922.6532">6.10 Confirmer sa pr&#233;sence &#224; un entretien</text></g><!--entity UC6_11--><g class="entity" data-qualified-name="6. Planification . Entretiens.UC6_11" data-source-line="26" id="ent0019"><ellipse cx="371.8957" cy="1035.9971" fill="#F1F1F1" rx="206.1857" ry="43.6371" style="stroke:#181818;stroke-width:0.5;"/><text fill="#000000" font-family="Arial" font-size="14" lengthAdjust="spacing" textLength="398.1182" x="172.8367" y="1040.6456">6.11 Demander un changement d'heure / reprogrammer</text></g><!--entity UC6_12--><g class="entity" data-qualified-name="6. Planification . Entretiens.UC6_12" data-source-line="27" id="ent0020"><ellipse cx="371.9022" cy="1161.0004" fill="#F1F1F1" rx="196.6522" ry="41.7304" style="stroke:#181818;stroke-width:0.5;"/><text fill="#000000" font-family="Arial" font-size="14" lengthAdjust="spacing" textLength="378.6357" x="182.5843" y="1165.6489">6.12 Recevoir invitation avec lien vid&#233;o (Meet/Teams)</text></g><!--entity UC6_13--><g class="entity" data-qualified-name="6. Planification . Entretiens.UC6_13" data-source-line="28" id="ent0021"><ellipse cx="371.9014" cy="1270.9963" fill="#F1F1F1" rx="129.4314" ry="28.2863" style="stroke:#181818;stroke-width:0.5;"/><text fill="#000000" font-family="Arial" font-size="14" lengthAdjust="spacing" textLength="239.374" x="252.2144" y="1275.6447">6.13 Rejoindre l'entretien en ligne</text></g><!--entity UC6_14--><g class="entity" data-qualified-name="6. Planification . Entretiens.UC6_14" data-source-line="29" id="ent0022"><ellipse cx="371.9019" cy="1376.9964" fill="#F1F1F1" rx="178.3819" ry="38.0764" style="stroke:#181818;stroke-width:0.5;"/><text fill="#000000" font-family="Arial" font-size="14" lengthAdjust="spacing" textLength="341.168" x="201.3179" y="1381.6448">6.14 Ajouter &#233;v&#233;nement au calendrier personnel</text></g><!--entity URH--><g class="entity" data-qualified-name="URH" data-source-line="7" id="ent0002"><ellipse cx="54.3574" cy="356.35" fill="#F1F1F1" rx="8" ry="8" style="stroke:#181818;stroke-width:0.5;"/><path d="M54.3574,364.35 L54.3574,391.35 M41.3574,372.35 L67.3574,372.35 M54.3574,391.35 L41.3574,406.35 M54.3574,391.35 L67.3574,406.35" fill="none" style="stroke:#181818;stroke-width:0.5;"/><text fill="#000000" font-family="Arial" font-size="14" lengthAdjust="spacing" textLength="96.7148" x="6" y="420.8451">Utilisateur RH</text></g><!--entity C--><g class="entity" data-qualified-name="C" data-source-line="8" id="ent0003"><ellipse cx="54.3595" cy="1099.35" fill="#F1F1F1" rx="8" ry="8" style="stroke:#181818;stroke-width:0.5;"/><path d="M54.3595,1107.35 L54.3595,1134.35 M41.3595,1115.35 L67.3595,1115.35 M54.3595,1134.35 L41.3595,1149.35 M54.3595,1134.35 L67.3595,1149.35" fill="none" style="stroke:#181818;stroke-width:0.5;"/><text fill="#000000" font-family="Arial" font-size="14" lengthAdjust="spacing" textLength="62.959" x="22.88" y="1163.8451">Candidat</text></g><!--entity GCAL--><g class="entity" data-qualified-name="GCAL" data-source-line="9" id="ent0004"><ellipse cx="1307.5057" cy="1574.4969" fill="#F1F1F1" rx="8" ry="8" style="stroke:#181818;stroke-width:0.5;"/><path d="M1307.5057,1582.4969 L1307.5057,1609.4969 M1294.5057,1590.4969 L1320.5057,1590.4969 M1307.5057,1609.4969 L1294.5057,1624.4969 M1307.5057,1609.4969 L1320.5057,1624.4969" fill="none" style="stroke:#181818;stroke-width:0.5;"/><text fill="#000000" font-family="Arial" font-size="14" lengthAdjust="spacing" textLength="116.7715" x="1249.12" y="1638.992">Google Calendar</text><text fill="#000000" font-family="Arial" font-size="14" font-style="italic" lengthAdjust="spacing" textLength="69.3369" x="1272.8373" y="1562.6951">&#171;System&#187;</text></g><!--entity EMAIL--><g class="entity" data-qualified-name="EMAIL" data-source-line="10" id="ent0005"><ellipse cx="912.6057" cy="1471.4969" fill="#F1F1F1" rx="8" ry="8" style="stroke:#181818;stroke-width:0.5;"/><path d="M912.6057,1479.4969 L912.6057,1506.4969 M899.6057,1487.4969 L925.6057,1487.4969 M912.6057,1506.4969 L899.6057,1521.4969 M912.6057,1506.4969 L925.6057,1521.4969" fill="none" style="stroke:#181818;stroke-width:0.5;"/><text fill="#000000" font-family="Arial" font-size="14" lengthAdjust="spacing" textLength="104.1113" x="860.55" y="1535.992">Syst&#232;me Email</text><text fill="#000000" font-family="Arial" font-size="14" font-style="italic" lengthAdjust="spacing" textLength="69.3369" x="877.9372" y="1459.6951">&#171;System&#187;</text></g><!--entity MEET--><g class="entity" data-qualified-name="MEET" data-source-line="11" id="ent0006"><ellipse cx="912.6009" cy="1833.4969" fill="#F1F1F1" rx="8" ry="8" style="stroke:#181818;stroke-width:0.5;"/><path d="M912.6009,1841.4969 L912.6009,1868.4969 M899.6009,1849.4969 L925.6009,1849.4969 M912.6009,1868.4969 L899.6009,1883.4969 M912.6009,1868.4969 L925.6009,1883.4969" fill="none" style="stroke:#181818;stroke-width:0.5;"/><text fill="#000000" font-family="Arial" font-size="14" lengthAdjust="spacing" textLength="104.8018" x="860.2" y="1897.992">Syst&#232;me Vid&#233;o</text><text fill="#000000" font-family="Arial" font-size="14" font-style="italic" lengthAdjust="spacing" textLength="69.3369" x="877.9324" y="1821.6951">&#171;System&#187;</text></g><!--entity IA--><g class="entity" data-qualified-name="IA" data-source-line="12" id="ent0007"><ellipse cx="912.6085" cy="1700.4969" fill="#F1F1F1" rx="8" ry="8" style="stroke:#181818;stroke-width:0.5;"/><path d="M912.6085,1708.4969 L912.6085,1735.4969 M899.6085,1716.4969 L925.6085,1716.4969 M912.6085,1735.4969 L899.6085,1750.4969 M912.6085,1735.4969 L925.6085,1750.4969" fill="none" style="stroke:#181818;stroke-width:0.5;"/><text fill="#000000" font-family="Arial" font-size="14" lengthAdjust="spacing" textLength="67.5322" x="878.8423" y="1764.992">Moteur IA</text><text fill="#000000" font-family="Arial" font-size="14" font-style="italic" lengthAdjust="spacing" textLength="69.3369" x="877.94" y="1688.6951">&#171;System&#187;</text></g><!--link URH to UC6_1--><g class="link" data-entity-1="ent0002" data-entity-2="ent0009" data-link-type="dependency" data-source-line="32" id="lnk23"><path d="M57.2,347.38 C62.03,291.32 79.41,187.88 141.71,131 C164.53,110.17 188.0446,98.4664 218.0146,90.0264" fill="none" id="URH-to-UC6_1" style="stroke:#181818;stroke-width:1;"/><polygon fill="#181818" points="223.79,88.4,214.0427,86.9894,218.9772,89.7554,216.2113,94.6899,223.79,88.4" style="stroke:#181818;stroke-width:1;"/></g><!--link URH to UC6_2--><g class="link" data-entity-1="ent0002" data-entity-2="ent0010" data-link-type="dependency" data-source-line="33" id="lnk24"><path d="M67.89,347.54 C80.96,313.58 104.77,265.33 141.71,238 C167.59,218.85 193.4301,207.8683 224.8401,199.7683" fill="none" id="URH-to-UC6_2" style="stroke:#181818;stroke-width:1;"/><polygon fill="#181818" points="230.65,198.27,220.9363,196.6441,225.8084,199.5186,222.934,204.3907,230.65,198.27" style="stroke:#181818;stroke-width:1;"/></g><!--link URH to UC6_3--><g class="link" data-entity-1="ent0002" data-entity-2="ent0011" data-link-type="dependency" data-source-line="34" id="lnk25"><path d="M102.89,354.92 C115.17,347.9 128.62,341.04 141.71,336 C179.21,321.55 215.9938,312.1228 254.2638,304.5628" fill="none" id="URH-to-UC6_3" style="stroke:#181818;stroke-width:1;"/><polygon fill="#181818" points="260.15,303.4,250.5454,301.22,255.2448,304.369,252.0958,309.0684,260.15,303.4" style="stroke:#181818;stroke-width:1;"/></g><!--link URH to UC6_4--><g class="link" data-entity-1="ent0002" data-entity-2="ent0012" data-link-type="dependency" data-source-line="35" id="lnk26"><path d="M102.94,386 C138.32,386 182.47,386 229.83,386" fill="none" id="URH-to-UC6_4" style="stroke:#181818;stroke-width:1;"/><polygon fill="#181818" points="235.83,386,226.83,382,230.83,386,226.83,390,235.83,386" style="stroke:#181818;stroke-width:1;"/></g><!--link URH to UC6_5--><g class="link" data-entity-1="ent0002" data-entity-2="ent0013" data-link-type="dependency" data-source-line="36" id="lnk27"><path d="M103.03,416.74 C115.3,423.76 128.72,430.71 141.71,436 C172.6,448.56 201.1601,457.4915 233.6901,465.8815" fill="none" id="URH-to-UC6_5" style="stroke:#181818;stroke-width:1;"/><polygon fill="#181818" points="239.5,467.38,231.7842,461.2591,234.6584,466.1313,229.7862,469.0056,239.5,467.38" style="stroke:#181818;stroke-width:1;"/></g><!--link URH to UC6_6--><g class="link" data-entity-1="ent0002" data-entity-2="ent0014" data-link-type="dependency" data-source-line="37" id="lnk28"><path d="M64.87,424.35 C76.46,462.85 99.88,520.92 141.71,553 C168.7,573.69 196.6059,584.8848 229.8559,592.3548" fill="none" id="URH-to-UC6_6" style="stroke:#181818;stroke-width:1;"/><polygon fill="#181818" points="235.71,593.67,227.8057,587.7945,230.8316,592.574,226.0521,595.5999,235.71,593.67" style="stroke:#181818;stroke-width:1;"/></g><!--link URH to UC6_7--><g class="link" data-entity-1="ent0002" data-entity-2="ent0015" data-link-type="dependency" data-source-line="38" id="lnk29"><path d="M56.32,424.21 C59.95,482.61 75.72,593.61 141.71,654 C165.79,676.03 191.3882,687.9187 223.1982,695.8487" fill="none" id="URH-to-UC6_7" style="stroke:#181818;stroke-width:1;"/><polygon fill="#181818" points="229.02,697.3,221.2548,691.2418,224.1685,696.0906,219.3197,699.0042,229.02,697.3" style="stroke:#181818;stroke-width:1;"/></g><!--link C to UC6_9--><g class="link" data-entity-1="ent0003" data-entity-2="ent0017" data-link-type="dependency" data-source-line="40" id="lnk30"><path d="M56.52,1090.76 C60.43,1032.92 76.59,923.64 141.71,864 C164.53,843.1 188.1205,831.5054 218.1805,823.3254" fill="none" id="C-to-UC6_9" style="stroke:#181818;stroke-width:1;"/><polygon fill="#181818" points="223.97,821.75,214.2355,820.2535,219.1454,823.0629,216.3361,827.9728,223.97,821.75" style="stroke:#181818;stroke-width:1;"/></g><!--link C to UC6_10--><g class="link" data-entity-1="ent0003" data-entity-2="ent0018" data-link-type="dependency" data-source-line="41" id="lnk31"><path d="M66.43,1090.66 C78.85,1054.57 102.58,1001.73 141.71,972 C166.78,952.96 191.6998,942.0155 222.4098,933.8855" fill="none" id="C-to-UC6_10" style="stroke:#181818;stroke-width:1;"/><polygon fill="#181818" points="228.21,932.35,218.486,930.7865,223.3765,933.6296,220.5334,938.5201,228.21,932.35" style="stroke:#181818;stroke-width:1;"/></g><!--link C to UC6_11--><g class="link" data-entity-1="ent0003" data-entity-2="ent0019" data-link-type="dependency" data-source-line="42" id="lnk32"><path d="M85.97,1117.81 C102.41,1111.94 123.07,1104.79 141.71,1099 C173.73,1089.05 202.7263,1080.6664 235.2963,1071.6764" fill="none" id="C-to-UC6_11" style="stroke:#181818;stroke-width:1;"/><polygon fill="#181818" points="241.08,1070.08,231.3401,1068.6188,236.2602,1071.4104,233.4687,1076.3305,241.08,1070.08" style="stroke:#181818;stroke-width:1;"/></g><!--link C to UC6_12--><g class="link" data-entity-1="ent0003" data-entity-2="ent0020" data-link-type="dependency" data-source-line="43" id="lnk33"><path d="M86.19,1132.12 C112.32,1134.77 146.1207,1138.2043 187.7107,1142.4243" fill="none" id="C-to-UC6_12" style="stroke:#181818;stroke-width:1;"/><polygon fill="#181818" points="193.68,1143.03,185.1298,1138.1419,188.7055,1142.5253,184.3222,1146.101,193.68,1143.03" style="stroke:#181818;stroke-width:1;"/></g><!--link C to UC6_13--><g class="link" data-entity-1="ent0003" data-entity-2="ent0021" data-link-type="dependency" data-source-line="44" id="lnk34"><path d="M81.51,1167.36 C96.82,1186.93 117.83,1209.41 141.71,1223 C174.84,1241.84 208.5446,1252.2045 245.4346,1259.1845" fill="none" id="C-to-UC6_13" style="stroke:#181818;stroke-width:1;"/><polygon fill="#181818" points="251.33,1260.3,243.2306,1254.6965,246.4172,1259.3704,241.7433,1262.5571,251.33,1260.3" style="stroke:#181818;stroke-width:1;"/></g><!--link C to UC6_14--><g class="link" data-entity-1="ent0003" data-entity-2="ent0022" data-link-type="dependency" data-source-line="45" id="lnk35"><path d="M62.49,1167.47 C72.54,1210.75 95.14,1280.08 141.71,1319 C163.13,1336.89 183.6289,1347.5306 210.5789,1356.2106" fill="none" id="C-to-UC6_14" style="stroke:#181818;stroke-width:1;"/><polygon fill="#181818" points="216.29,1358.05,208.9496,1351.4835,211.5308,1356.5172,206.4971,1359.0983,216.29,1358.05" style="stroke:#181818;stroke-width:1;"/></g><!--link UC6_1 to UC6_8--><g class="link" data-entity-1="ent0009" data-entity-2="ent0016" data-link-type="dependency" data-source-line="47" id="lnk36"><path d="M504.95,94.82 C531,102.92 556.82,114.49 578.09,131 C768.88,279.13 866.0114,563.2467 898.0414,673.8767" fill="none" id="UC6_1-to-UC6_8" style="stroke:#181818;stroke-width:1;stroke-dasharray:7,7;"/><polygon fill="#181818" points="899.71,679.64,901.0493,669.8826,898.3195,674.8372,893.3649,672.1074,899.71,679.64" style="stroke:#181818;stroke-width:1;"/><text fill="#000000" font-family="Arial" font-size="13" lengthAdjust="spacing" textLength="63.0068" x="609.09" y="163.0669">&#171;include&#187;</text></g><!--link UC6_4 to GCAL--><g class="link" data-entity-1="ent0012" data-entity-2="ent0004" data-link-type="dependency" data-source-line="48" id="lnk37"><path d="M505.33,391.7 C533.28,399.31 559.82,412.56 578.09,435 C612.73,477.54 592.32,1369.45 608.09,1422 C631.2,1499.02 633.52,1535.65 703.09,1576 C879.21,1678.15 1129.6307,1638.1362 1243.0107,1612.2362" fill="none" id="UC6_4-to-GCAL" style="stroke:#181818;stroke-width:1;stroke-dasharray:7,7;"/><polygon fill="#181818" points="1248.86,1610.9,1239.1952,1609.0047,1243.9856,1612.0135,1240.9768,1616.8038,1248.86,1610.9" style="stroke:#181818;stroke-width:1;"/><text fill="#000000" font-family="Arial" font-size="13" lengthAdjust="spacing" textLength="61.7119" x="882.11" y="1572.0669">&#171;update&#187;</text></g><!--link UC6_2 to EMAIL--><g class="link" data-entity-1="ent0010" data-entity-2="ent0005" data-link-type="dependency" data-source-line="49" id="lnk38"><path d="M514.92,197.46 C539.01,205.89 561.54,218.7 578.09,238 C621.54,288.67 660.22,1381.83 703.09,1433 C741.31,1478.62 805.7889,1490.4541 854.1389,1493.0841" fill="none" id="UC6_2-to-EMAIL" style="stroke:#181818;stroke-width:1;"/><polygon fill="#181818" points="860.13,1493.41,851.3605,1488.9271,855.1374,1493.1384,850.926,1496.9153,860.13,1493.41" style="stroke:#181818;stroke-width:1;"/><text fill="#000000" font-family="Arial" font-size="13" lengthAdjust="spacing" textLength="63.0068" x="609.09" y="422.0669">&#171;include&#187;</text></g><!--link UC6_6 to IA--><g class="link" data-entity-1="ent0014" data-entity-2="ent0007" data-link-type="dependency" data-source-line="50" id="lnk39"><path d="M509.39,611.21 C535.87,619.23 560.75,632.5 578.09,654 C647.18,739.66 539.34,1558.06 608.09,1644 C673.43,1725.67 805.8091,1728.9897 870.6791,1725.4197" fill="none" id="UC6_6-to-IA" style="stroke:#181818;stroke-width:1;"/><polygon fill="#181818" points="876.67,1725.09,867.4638,1721.5906,871.6776,1725.3647,867.9034,1729.5785,876.67,1725.09" style="stroke:#181818;stroke-width:1;"/><text fill="#000000" font-family="Arial" font-size="13" lengthAdjust="spacing" textLength="63.0068" x="609.09" y="1640.0669">&#171;include&#187;</text></g><!--link UC6_12 to EMAIL--><g class="link" data-entity-1="ent0020" data-entity-2="ent0005" data-link-type="dependency" data-source-line="52" id="lnk40"><path d="M524.89,1187.6 C544.64,1196.3 563.16,1207.8 578.09,1223 C612.4,1257.92 584.27,1286.22 608.09,1329 C638.54,1383.7 649.89,1399.99 703.09,1433 C751.74,1463.19 810.2165,1477.665 854.4965,1485.265" fill="none" id="UC6_12-to-EMAIL" style="stroke:#181818;stroke-width:1;"/><polygon fill="#181818" points="860.41,1486.28,852.2164,1480.8152,855.4821,1485.4342,850.8631,1488.6999,860.41,1486.28" style="stroke:#181818;stroke-width:1;"/><text fill="#000000" font-family="Arial" font-size="13" lengthAdjust="spacing" textLength="63.0068" x="609.09" y="1325.0669">&#171;include&#187;</text></g><!--link UC6_13 to MEET--><g class="link" data-entity-1="ent0021" data-entity-2="ent0006" data-link-type="dependency" data-source-line="53" id="lnk41"><path d="M500.22,1275.31 C529.83,1282.55 558.41,1295.75 578.09,1319 C645.7,1398.88 539.85,1709.64 608.09,1789 C670.14,1861.16 784.9225,1865.5769 853.9425,1861.1169" fill="none" id="UC6_13-to-MEET" style="stroke:#181818;stroke-width:1;"/><polygon fill="#181818" points="859.93,1860.73,850.6908,1857.3187,854.9404,1861.0524,851.2067,1865.302,859.93,1860.73" style="stroke:#181818;stroke-width:1;"/><text fill="#000000" font-family="Arial" font-size="13" lengthAdjust="spacing" textLength="63.0068" x="609.09" y="1785.0669">&#171;include&#187;</text></g><!--link UC6_14 to GCAL--><g class="link" data-entity-1="ent0022" data-entity-2="ent0004" data-link-type="dependency" data-source-line="54" id="lnk42"><path d="M379.68,1415.18 C401.8,1526.13 483.54,1846.38 703.09,1938 C884.81,2013.83 979.94,2043.61 1146.12,1938 C1249.76,1872.13 1286.6151,1725.5686 1299.4551,1648.4086" fill="none" id="UC6_14-to-GCAL" style="stroke:#181818;stroke-width:1;"/><polygon fill="#181818" points="1300.44,1642.49,1295.0169,1650.7113,1299.6192,1647.4222,1302.9084,1652.0245,1300.44,1642.49" style="stroke:#181818;stroke-width:1;"/><text fill="#000000" font-family="Arial" font-size="13" lengthAdjust="spacing" textLength="63.0068" x="881.11" y="1934.0669">&#171;include&#187;</text></g><!--link UC6_8 to GCAL--><g class="link" data-entity-1="ent0016" data-entity-2="ent0004" data-link-type="dependency" data-source-line="55" id="lnk43"><path d="M933.63,768.44 C1000.68,917.24 1214.4451,1391.6797 1282.9951,1543.8097" fill="none" id="UC6_8-to-GCAL" style="stroke:#181818;stroke-width:1;"/><polygon fill="#181818" points="1285.46,1549.28,1285.4095,1539.4313,1283.4059,1544.7214,1278.1157,1542.7178,1285.46,1549.28" style="stroke:#181818;stroke-width:1;"/><text fill="#000000" font-family="Arial" font-size="13" lengthAdjust="spacing" textLength="63.0068" x="1155.12" y="1260.0669">&#171;include&#187;</text></g><?plantuml-src VLJRRjf047ttLunIAQ4FIJ0GGgee4dA189Mg8fVNQciFiCbwrzrT8qLL_wMFuJlyOnqlO7jf6Wd9pEMScPqpk-QPounfbi8F5ZyljSfb4YcXD7mO3yR3SHIOAYF11Sk57Ijflx8KOQWv4usuL0aQpA3NRZWray-bizyE12uiM0MQBrSM4gunjbp9862nfO973vOBRfZ5NCFyzWYOWOVvxJuQCPdmX5ddZ_RUYL9BWH0nWJ9XsWKdqV0BN5_VlHYBwStDFhMqYrVgUvGoBbpcQ3QSlflwo9DYerpkR3IwVoDrfbo_qw5BcWwRAK5vGYRB1e_wP_1DCCaNF6RbgU4OHj9gj1obEO9V0K1kC6R6vORxPDIGIy1z9h0rngKdRaxZ8Uf_3ts23h6lrGl1kLnpkorPqv0sZJ6K-8wFxyAZuXh42LkMWoNjJGqtbJm4xFh07WobpCLXtwtvxKxnZnMovoCl8DB5Xe2fIefNcbboKcpMJEJRvbiJpONpLgmrrOLFrOT9iP75HXFRpnnDIM2QI6XDXpMwxwClOOvf9kZuott9PYE4tfwamb_w-07SlSXufPNaXXeWB3M3AHKtkqNLfQxbI8vXlzPrDmDYymclTc8meFjXgHy4u-kHRRUbs9YAvkfWezeGARdWEgNIXa56ipOeOuJYZoTLlL7j0uOGFcDAxMwrZLUqsUvKD9yLtG64Sz2OQRMaUqzLQgA3tGmxDE0Or-MP6jlfLbkKugpThOFM3D6UtoDBJJsTy61HmowHFIbEGqLQrrfX-Wc-b5WZ3pOrf5LzKhdr9GAMq-MgHCfG6oKbrXSbx0M_Wu0U9ZWzlTbTlQRLyQokP_KywyAp-fvr6GHHPLmr_fCg3IDi6fscqMqQFMgu_CBPsTOpW4_qK74PYpn1UgbSSoxg7iyoc6UqbVjOnt5jdyj_aNqNfRVF3srhlWyb-SgmUrpVYFPSjEh9Zmx-4_mB?></g></svg>