<svg xmlns="http://www.w3.org/2000/svg" xmlns:xlink="http://www.w3.org/1999/xlink" contentStyleType="text/css" data-diagram-type="DESCRIPTION" height="1386px" preserveAspectRatio="none" style="width:1208px;height:1386px;background:#F8FAFC;" version="1.1" viewBox="0 0 1208 1386" width="1208px" zoomAndPan="magnify"><?plantuml 1.2026.3beta6?><defs/><g><rect fill="#F8FAFC" height="1386" style="stroke:none;stroke-width:1;" width="1208" x="0" y="0"/><!--cluster 5. Quiz & Tests (IA)--><g class="cluster" data-qualified-name="5. Quiz . Tests .IA." data-source-line="12" id="ent0006"><rect fill="none" height="1052" rx="2.5" ry="2.5" style="stroke:#181818;stroke-width:1;" width="861.9" x="149.71" y="84.72"/><text fill="#000000" font-family="Arial" font-size="14" font-weight="700" lengthAdjust="spacing" textLength="152.8242" x="504.2479" y="99.7151">5. Quiz &amp; Tests (IA)</text></g><!--entity UC5_1--><g class="entity" data-qualified-name="5. Quiz . Tests .IA..UC5_1" data-source-line="13" id="ent0007"><ellipse cx="347.0049" cy="542.725" fill="#F1F1F1" rx="125.9749" ry="27.595" style="stroke:#181818;stroke-width:0.5;"/><text fill="#000000" font-family="Arial" font-size="14" lengthAdjust="spacing" textLength="232.0596" x="230.9752" y="547.3734">5.1 G&#233;n&#233;rer Quiz sur mesure (IA)</text></g><!--entity UC5_2--><g class="entity" data-qualified-name="5. Quiz . Tests .IA..UC5_2" data-source-line="14" id="ent0008"><ellipse cx="346.9965" cy="147.7173" fill="#F1F1F1" rx="128.9365" ry="28.1873" style="stroke:#181818;stroke-width:0.5;"/><text fill="#000000" font-family="Arial" font-size="14" lengthAdjust="spacing" textLength="238.3281" x="227.8324" y="152.3657">5.2 Voir questions du Quiz g&#233;n&#233;r&#233;</text></g><!--entity UC5_3--><g class="entity" data-qualified-name="5. Quiz . Tests .IA..UC5_3" data-source-line="15" id="ent0009"><ellipse cx="347.0046" cy="245.7209" fill="#F1F1F1" rx="138.6046" ry="30.1209" style="stroke:#181818;stroke-width:0.5;"/><text fill="#000000" font-family="Arial" font-size="14" lengthAdjust="spacing" textLength="258.6787" x="217.6652" y="250.3693">5.3 Envoyer lien du Quiz au candidat</text></g><!--entity UC5_4--><g class="entity" data-qualified-name="5. Quiz . Tests .IA..UC5_4" data-source-line="16" id="ent0010"><ellipse cx="346.9983" cy="342.7197" fill="#F1F1F1" rx="124.0483" ry="27.2097" style="stroke:#181818;stroke-width:0.5;"/><text fill="#000000" font-family="Arial" font-size="14" lengthAdjust="spacing" textLength="227.9717" x="233.0125" y="347.3681">5.4 Voir statut des Quiz envoy&#233;s</text></g><!--entity UC5_5--><g class="entity" data-qualified-name="5. Quiz . Tests .IA..UC5_5" data-source-line="17" id="ent0011"><ellipse cx="824.4498" cy="294.716" fill="#F1F1F1" rx="125.8298" ry="27.566" style="stroke:#181818;stroke-width:0.5;"/><text fill="#000000" font-family="Arial" font-size="14" lengthAdjust="spacing" textLength="231.752" x="708.5739" y="299.3644">5.5 Voir score final d'un candidat</text></g><!--entity UC5_6--><g class="entity" data-qualified-name="5. Quiz . Tests .IA..UC5_6" data-source-line="18" id="ent0012"><ellipse cx="346.9954" cy="442.7211" fill="#F1F1F1" rx="150.0554" ry="32.4111" style="stroke:#181818;stroke-width:0.5;"/><text fill="#000000" font-family="Arial" font-size="14" lengthAdjust="spacing" textLength="282.5977" x="205.6966" y="447.3695">5.6 Voir r&#233;ponses d&#233;taill&#233;es du candidat</text></g><!--entity UC5_7--><g class="entity" data-qualified-name="5. Quiz . Tests .IA..UC5_7" data-source-line="20" id="ent0013"><ellipse cx="346.9973" cy="1085.7155" fill="#F1F1F1" rx="163.5773" ry="35.1155" style="stroke:#181818;stroke-width:0.5;"/><text fill="#000000" font-family="Arial" font-size="14" lengthAdjust="spacing" textLength="310.6455" x="191.6746" y="1090.3639">5.7 Voir les Quiz / Tests techniques &#224; passer</text></g><!--entity UC5_8--><g class="entity" data-qualified-name="5. Quiz . Tests .IA..UC5_8" data-source-line="21" id="ent0014"><ellipse cx="346.9994" cy="644.7219" fill="#F1F1F1" rx="160.3594" ry="34.4719" style="stroke:#181818;stroke-width:0.5;"/><text fill="#000000" font-family="Arial" font-size="14" lengthAdjust="spacing" textLength="303.9873" x="195.0058" y="649.3703">5.8 D&#233;marrer le Quiz (Temps chronom&#233;tr&#233;)</text></g><!--entity UC5_9--><g class="entity" data-qualified-name="5. Quiz . Tests .IA..UC5_9" data-source-line="22" id="ent0015"><ellipse cx="347.0022" cy="757.7164" fill="#F1F1F1" rx="181.2822" ry="38.6564" style="stroke:#181818;stroke-width:0.5;"/><text fill="#000000" font-family="Arial" font-size="14" lengthAdjust="spacing" textLength="347.1289" x="173.4378" y="762.3649">5.9 Soumettre les r&#233;ponses avant la fin du temps</text></g><!--entity UC5_10--><g class="entity" data-qualified-name="5. Quiz . Tests .IA..UC5_10" data-source-line="23" id="ent0016"><ellipse cx="824.4467" cy="936.7233" fill="#F1F1F1" rx="171.1667" ry="36.6333" style="stroke:#181818;stroke-width:0.5;"/><text fill="#000000" font-family="Arial" font-size="14" lengthAdjust="spacing" textLength="326.3135" x="661.29" y="941.3718">5.10 R&#233;solution et correction automatique (IA)</text></g><!--entity UC5_11--><g class="entity" data-qualified-name="5. Quiz . Tests .IA..UC5_11" data-source-line="24" id="ent0017"><ellipse cx="346.9969" cy="870.7154" fill="#F1F1F1" rx="159.2769" ry="34.2554" style="stroke:#181818;stroke-width:0.5;"/><text fill="#000000" font-family="Arial" font-size="14" lengthAdjust="spacing" textLength="301.7451" x="196.1243" y="875.3638">5.11 Voir le score obtenu (Si RH le permet)</text></g><!--entity UC5_12--><g class="entity" data-qualified-name="5. Quiz . Tests .IA..UC5_12" data-source-line="25" id="ent0018"><ellipse cx="346.9963" cy="977.7193" fill="#F1F1F1" rx="149.9963" ry="32.3993" style="stroke:#181818;stroke-width:0.5;"/><text fill="#000000" font-family="Arial" font-size="14" lengthAdjust="spacing" textLength="282.4746" x="205.759" y="982.3677">5.12 T&#233;l&#233;charger attestation de r&#233;ussite</text></g><!--entity URH--><g class="entity" data-qualified-name="URH" data-source-line="7" id="ent0002"><ellipse cx="54.3574" cy="265.07" fill="#F1F1F1" rx="8" ry="8" style="stroke:#181818;stroke-width:0.5;"/><path d="M54.3574,273.07 L54.3574,300.07 M41.3574,281.07 L67.3574,281.07 M54.3574,300.07 L41.3574,315.07 M54.3574,300.07 L67.3574,315.07" fill="none" style="stroke:#181818;stroke-width:0.5;"/><text fill="#000000" font-family="Arial" font-size="14" lengthAdjust="spacing" textLength="96.7148" x="6" y="329.5651">Utilisateur RH</text></g><!--entity C--><g class="entity" data-qualified-name="C" data-source-line="8" id="ent0003"><ellipse cx="54.3595" cy="841.07" fill="#F1F1F1" rx="8" ry="8" style="stroke:#181818;stroke-width:0.5;"/><path d="M54.3595,849.07 L54.3595,876.07 M41.3595,857.07 L67.3595,857.07 M54.3595,876.07 L41.3595,891.07 M54.3595,876.07 L67.3595,891.07" fill="none" style="stroke:#181818;stroke-width:0.5;"/><text fill="#000000" font-family="Arial" font-size="14" lengthAdjust="spacing" textLength="62.959" x="22.88" y="905.5651">Candidat</text></g><!--entity IA--><g class="entity" data-qualified-name="IA" data-source-line="9" id="ent0004"><ellipse cx="1158.2785" cy="1247.2169" fill="#F1F1F1" rx="8" ry="8" style="stroke:#181818;stroke-width:0.5;"/><path d="M1158.2785,1255.2169 L1158.2785,1282.2169 M1145.2785,1263.2169 L1171.2785,1263.2169 M1158.2785,1282.2169 L1145.2785,1297.2169 M1158.2785,1282.2169 L1171.2785,1297.2169" fill="none" style="stroke:#181818;stroke-width:0.5;"/><text fill="#000000" font-family="Arial" font-size="14" lengthAdjust="spacing" textLength="67.5322" x="1124.5123" y="1311.712">Moteur IA</text><text fill="#000000" font-family="Arial" font-size="14" font-style="italic" lengthAdjust="spacing" textLength="69.3369" x="1123.61" y="1235.4151">&#171;System&#187;</text></g><!--entity EMAIL--><g class="entity" data-qualified-name="EMAIL" data-source-line="10" id="ent0005"><ellipse cx="824.4457" cy="1177.2169" fill="#F1F1F1" rx="8" ry="8" style="stroke:#181818;stroke-width:0.5;"/><path d="M824.4457,1185.2169 L824.4457,1212.2169 M811.4457,1193.2169 L837.4457,1193.2169 M824.4457,1212.2169 L811.4457,1227.2169 M824.4457,1212.2169 L837.4457,1227.2169" fill="none" style="stroke:#181818;stroke-width:0.5;"/><text fill="#000000" font-family="Arial" font-size="14" lengthAdjust="spacing" textLength="104.1113" x="772.39" y="1241.712">Syst&#232;me Email</text><text fill="#000000" font-family="Arial" font-size="14" font-style="italic" lengthAdjust="spacing" textLength="69.3369" x="789.7772" y="1165.4151">&#171;System&#187;</text></g><!--link URH to UC5_1--><g class="link" data-entity-1="ent0002" data-entity-2="ent0007" data-link-type="dependency" data-source-line="28" id="lnk19"><path d="M61.36,333.29 C70.51,378.79 92.41,453.45 141.71,494.72 C165.74,514.83 190.8359,525.491 221.3259,532.581" fill="none" id="URH-to-UC5_1" style="stroke:#181818;stroke-width:1;"/><polygon fill="#181818" points="227.17,533.94,219.3099,528.0055,222.2999,532.8075,217.4979,535.7976,227.17,533.94" style="stroke:#181818;stroke-width:1;"/></g><!--link URH to UC5_2--><g class="link" data-entity-1="ent0002" data-entity-2="ent0008" data-link-type="dependency" data-source-line="29" id="lnk20"><path d="M79.78,256.51 C95.12,235.53 116.71,210.78 141.71,195.72 C169.18,179.18 196.0503,169.6646 227.1703,162.5646" fill="none" id="URH-to-UC5_2" style="stroke:#181818;stroke-width:1;"/><polygon fill="#181818" points="233.02,161.23,223.3557,159.3321,228.1453,162.3422,225.1352,167.1317,233.02,161.23" style="stroke:#181818;stroke-width:1;"/></g><!--link URH to UC5_3--><g class="link" data-entity-1="ent0002" data-entity-2="ent0009" data-link-type="dependency" data-source-line="30" id="lnk21"><path d="M103.03,286.68 C139.18,280.59 184.4236,272.9581 230.4836,265.1881" fill="none" id="URH-to-UC5_3" style="stroke:#181818;stroke-width:1;"/><polygon fill="#181818" points="236.4,264.19,226.86,261.7428,231.4697,265.0217,228.1908,269.6314,236.4,264.19" style="stroke:#181818;stroke-width:1;"/></g><!--link URH to UC5_4--><g class="link" data-entity-1="ent0002" data-entity-2="ent0010" data-link-type="dependency" data-source-line="31" id="lnk22"><path d="M103.03,302.59 C141.92,309.01 192.2603,317.3217 240.8503,325.3517" fill="none" id="URH-to-UC5_4" style="stroke:#181818;stroke-width:1;"/><polygon fill="#181818" points="246.77,326.33,238.5426,320.9161,241.8369,325.5148,237.2382,328.809,246.77,326.33" style="stroke:#181818;stroke-width:1;"/></g><!--link URH to UC5_5--><g class="link" data-entity-1="ent0002" data-entity-2="ent0011" data-link-type="dependency" data-source-line="32" id="lnk23"><path d="M59.98,256.33 C67.82,210.1 88.49,134.35 141.71,99.72 C285.71,6 363.74,50.27 528.28,99.72 C638.56,132.86 741.2205,218.0019 790.6205,263.3619" fill="none" id="URH-to-UC5_5" style="stroke:#181818;stroke-width:1;"/><polygon fill="#181818" points="795.04,267.42,791.1161,258.3866,791.3571,264.0383,785.7054,264.2792,795.04,267.42" style="stroke:#181818;stroke-width:1;"/></g><!--link URH to UC5_6--><g class="link" data-entity-1="ent0002" data-entity-2="ent0012" data-link-type="dependency" data-source-line="33" id="lnk24"><path d="M81.69,333.04 C97.06,352.69 118.06,375.43 141.71,389.72 C166.88,404.92 190.56,414.2264 219.15,421.9964" fill="none" id="URH-to-UC5_6" style="stroke:#181818;stroke-width:1;"/><polygon fill="#181818" points="224.94,423.57,217.3041,417.3497,220.115,422.2587,215.206,425.0696,224.94,423.57" style="stroke:#181818;stroke-width:1;"/></g><!--link C to UC5_7--><g class="link" data-entity-1="ent0003" data-entity-2="ent0013" data-link-type="dependency" data-source-line="35" id="lnk25"><path d="M66.54,909.22 C79.04,945.54 102.82,998.88 141.71,1029.72 C162.1,1045.88 181.1158,1055.5295 206.2258,1063.7195" fill="none" id="C-to-UC5_7" style="stroke:#181818;stroke-width:1;"/><polygon fill="#181818" points="211.93,1065.58,204.614,1058.9864,207.1765,1064.0296,202.1333,1066.592,211.93,1065.58" style="stroke:#181818;stroke-width:1;"/></g><!--link C to UC5_8--><g class="link" data-entity-1="ent0003" data-entity-2="ent0014" data-link-type="dependency" data-source-line="36" id="lnk26"><path d="M64.63,832.34 C76.13,793.02 99.56,732.94 141.71,698.72 C161.65,682.53 180.2486,672.9985 205.0386,665.0185" fill="none" id="C-to-UC5_8" style="stroke:#181818;stroke-width:1;"/><polygon fill="#181818" points="210.75,663.18,200.9573,662.1302,205.9905,664.7121,203.4086,669.7454,210.75,663.18" style="stroke:#181818;stroke-width:1;"/></g><!--link C to UC5_9--><g class="link" data-entity-1="ent0003" data-entity-2="ent0015" data-link-type="dependency" data-source-line="37" id="lnk27"><path d="M86.17,848.52 C102.15,837.78 122.34,825.37 141.71,816.72 C167.92,805.01 191.3002,796.6944 219.1702,788.3844" fill="none" id="C-to-UC5_9" style="stroke:#181818;stroke-width:1;"/><polygon fill="#181818" points="224.92,786.67,215.1523,785.4084,220.1285,788.0987,217.4382,793.0749,224.92,786.67" style="stroke:#181818;stroke-width:1;"/></g><!--link C to UC5_11--><g class="link" data-entity-1="ent0003" data-entity-2="ent0017" data-link-type="dependency" data-source-line="38" id="lnk28"><path d="M86.19,870.72 C111.24,870.72 142.66,870.72 181.35,870.72" fill="none" id="C-to-UC5_11" style="stroke:#181818;stroke-width:1;"/><polygon fill="#181818" points="187.35,870.72,178.35,866.72,182.35,870.72,178.35,874.72,187.35,870.72" style="stroke:#181818;stroke-width:1;"/></g><!--link C to UC5_12--><g class="link" data-entity-1="ent0003" data-entity-2="ent0018" data-link-type="dependency" data-source-line="39" id="lnk29"><path d="M86.08,893.14 C102.03,903.94 122.22,916.33 141.71,924.72 C171.33,937.46 198.9173,946.2227 229.9873,954.1727" fill="none" id="C-to-UC5_12" style="stroke:#181818;stroke-width:1;"/><polygon fill="#181818" points="235.8,955.66,228.0725,949.5539,230.9561,954.4206,226.0894,957.3042,235.8,955.66" style="stroke:#181818;stroke-width:1;"/></g><!--link UC5_1 to IA--><g class="link" data-entity-1="ent0007" data-entity-2="ent0004" data-link-type="dependency" data-source-line="41" id="lnk30"><path d="M466.05,551.95 C489.93,559.34 512.52,571.39 528.28,590.72 C565.12,635.92 541.76,1058.79 558.28,1114.72 C582.47,1196.61 579.47,1238.79 653.28,1281.72 C807.44,1371.38 1029.7752,1311.9693 1116.4352,1283.2193" fill="none" id="UC5_1-to-IA" style="stroke:#181818;stroke-width:1;"/><polygon fill="#181818" points="1122.13,1281.33,1112.3283,1280.3674,1117.3843,1282.9044,1114.8473,1287.9604,1122.13,1281.33" style="stroke:#181818;stroke-width:1;"/><text fill="#000000" font-family="Arial" font-size="13" lengthAdjust="spacing" textLength="63.0068" x="792.95" y="1277.7869">&#171;include&#187;</text></g><!--link UC5_3 to EMAIL--><g class="link" data-entity-1="ent0009" data-entity-2="ent0005" data-link-type="dependency" data-source-line="42" id="lnk31"><path d="M472.69,258.45 C494.13,266.2 514.06,277.98 528.28,295.72 C568.85,346.32 545.34,815.16 558.28,878.72 C582.83,999.27 565.79,1052.22 653.28,1138.72 C685.24,1170.32 728.9452,1184.2315 766.3652,1191.3315" fill="none" id="UC5_3-to-EMAIL" style="stroke:#181818;stroke-width:1;"/><polygon fill="#181818" points="772.26,1192.45,764.1634,1186.8424,767.3476,1191.5179,762.6721,1194.7022,772.26,1192.45" style="stroke:#181818;stroke-width:1;"/><text fill="#000000" font-family="Arial" font-size="13" lengthAdjust="spacing" textLength="63.0068" x="559.28" y="874.7869">&#171;include&#187;</text></g><!--link UC5_6 to UC5_5--><g class="link" data-entity-1="ent0012" data-entity-2="ent0011" data-link-type="dependency" data-source-line="43" id="lnk32"><path d="M438.46,416.61 C467.22,408.18 499.13,398.69 528.28,389.72 C605.45,365.96 687.8282,339.2981 747.5282,319.7381" fill="none" id="UC5_6-to-UC5_5" style="stroke:#181818;stroke-width:1;stroke-dasharray:7,7;"/><polygon fill="#181818" points="753.23,317.87,743.4319,316.871,748.4785,319.4268,745.9228,324.4734,753.23,317.87" style="stroke:#181818;stroke-width:1;"/><text fill="#000000" font-family="Arial" font-size="13" lengthAdjust="spacing" textLength="63.0068" x="559.28" y="357.7869">&#171;include&#187;</text></g><!--link UC5_9 to UC5_10--><g class="link" data-entity-1="ent0015" data-entity-2="ent0016" data-link-type="dependency" data-source-line="44" id="lnk33"><path d="M450.44,789.87 C475.99,798.26 503.23,807.54 528.28,816.72 C603.2,844.17 681.8818,876.4579 741.1218,901.4479" fill="none" id="UC5_9-to-UC5_10" style="stroke:#181818;stroke-width:1;stroke-dasharray:7,7;"/><polygon fill="#181818" points="746.65,903.78,739.9123,896.5964,742.0431,901.8366,736.8029,903.9674,746.65,903.78" style="stroke:#181818;stroke-width:1;"/><text fill="#000000" font-family="Arial" font-size="13" lengthAdjust="spacing" textLength="63.0068" x="559.28" y="825.7869">&#171;include&#187;</text></g><!--link UC5_10 to IA--><g class="link" data-entity-1="ent0016" data-entity-2="ent0004" data-link-type="dependency" data-source-line="45" id="lnk34"><path d="M861.59,972.88 C925.76,1037.08 1054.5284,1165.9164 1117.9384,1229.3564" fill="none" id="UC5_10-to-IA" style="stroke:#181818;stroke-width:1;"/><polygon fill="#181818" points="1122.18,1233.6,1118.6466,1224.4068,1118.6453,1230.0636,1112.9884,1230.0623,1122.18,1233.6" style="stroke:#181818;stroke-width:1;"/><text fill="#000000" font-family="Arial" font-size="13" lengthAdjust="spacing" textLength="63.0068" x="1028.61" y="1138.7869">&#171;include&#187;</text></g><?plantuml-src RLFDRjf04BxxAKPKQjD3A10WK4MH40qDKbEf9EcrsjW3hBBUfRkpaTAgxz9Z_Hn-iSxQnh4X5_3yVDzyCxFZ7gNU2IjIU13nuyOQhvEvKSR2cyLaCLlC8rTd9BWMNj72QFegKeIPbK8rujeaw707mrx3QOL-3CvnBrAu9Y03Lcws18cq69CqEef4J5omSqzIIIS8lONLTGU4W_lLzJuw5pgHYQ32FzzxRqoHlfmLxkKCBYvkdnrXUdcvJmbs_e_rNgL2gYBlwcQs_D9CZO8MeJSAeJFgmZSlVy5Rk4D73awMi_ST-1q1U8UnS4LA7pxdcSupYxRCTgmYHVx52X3KpqS_-ctS0BuRQU6dPshktK7YI_ocfCkp6Zbe8y_WIZ-PPwwd9EeQ9pp4pSa4v5aREInhEXBaUUxeIYG6kZnpDMpOXeqgM6oufxNKGa7opklZSgCsRbpYk9KTDyZLaZmZdhpACopwFI8OCq6RuxpaK7kj7wfT4CPRBSFq8FyBE-4SsfhclCqnWKzvbWeRLiHxBNXExZ3TEOYtrcYJiYvM-RAhIPjW2hV6fqZ4_GSbBns99w49b0XZ2HrHOArffWTFfGSh7hDHFcmSa80dMhrzNX-PL51ewU3Tz0vO-lkHL1in3uJQmycjv6C9xXrQ5jjWE7Xw_G7SvHbl8TuAk-6X228CZoBeI32qvvsJX2yCW-XF5F4DmkdfPVMQczQWPPsrh67B6hMiSHJDQ-EyyJrfV4yRtznAmnYmfl1VUFZaF_8bInqhdo2VSY6b29LNVXmTGxTRoNebEgsZlBZZC3jVA_iV?></g></svg>