<svg xmlns="http://www.w3.org/2000/svg" xmlns:xlink="http://www.w3.org/1999/xlink" contentStyleType="text/css" data-diagram-type="DESCRIPTION" height="872px" preserveAspectRatio="none" style="width:765px;height:872px;background:#F8FAFC;" version="1.1" viewBox="0 0 765 872" width="765px" zoomAndPan="magnify"><?plantuml 1.2026.3beta6?><defs/><g><rect fill="#F8FAFC" height="872" style="stroke:none;stroke-width:1;" width="765" x="0" y="0"/><!--cluster 7. Syst?me de Notifications & Suivi--><g class="cluster" data-qualified-name="7. Syst.me de Notifications . Suivi" data-source-line="11" id="ent0005"><rect fill="none" height="851" rx="2.5" ry="2.5" style="stroke:#181818;stroke-width:1;" width="385.29" x="149.71" y="7"/><text fill="#000000" font-family="Arial" font-size="14" font-weight="700" lengthAdjust="spacing" textLength="278.6123" x="203.0488" y="21.9951">7. Syst&#232;me de Notifications &amp; Suivi</text></g><!--entity UC7_1--><g class="entity" data-qualified-name="7. Syst.me de Notifications . Suivi.UC7_1" data-source-line="12" id="ent0006"><ellipse cx="342.359" cy="78.9978" fill="#F1F1F1" rx="175.139" ry="37.4278" style="stroke:#181818;stroke-width:0.5;"/><text fill="#000000" font-family="Arial" font-size="14" lengthAdjust="spacing" textLength="334.4961" x="175.111" y="83.6462">7.1 Recevoir alerte in-app nouvelle candidature</text></g><!--entity UC7_2--><g class="entity" data-qualified-name="7. Syst.me de Notifications . Suivi.UC7_2" data-source-line="13" id="ent0007"><ellipse cx="342.3621" cy="480.0024" fill="#F1F1F1" rx="149.6121" ry="32.3224" style="stroke:#181818;stroke-width:0.5;"/><text fill="#000000" font-family="Arial" font-size="14" lengthAdjust="spacing" textLength="281.6748" x="201.5247" y="484.6509">7.2 Marquer une notification comme lue</text></g><!--entity UC7_3--><g class="entity" data-qualified-name="7. Syst.me de Notifications . Suivi.UC7_3" data-source-line="14" id="ent0008"><ellipse cx="342.3607" cy="384.0001" fill="#F1F1F1" rx="104.2507" ry="23.2501" style="stroke:#181818;stroke-width:0.5;"/><text fill="#000000" font-family="Arial" font-size="14" lengthAdjust="spacing" textLength="185.3838" x="249.6688" y="388.6486">7.3 Voir historique d&#233;taill&#233;</text></g><!--entity UC7_4--><g class="entity" data-qualified-name="7. Syst.me de Notifications . Suivi.UC7_4" data-source-line="15" id="ent0009"><ellipse cx="342.3561" cy="187.0032" fill="#F1F1F1" rx="140.3661" ry="30.4732" style="stroke:#181818;stroke-width:0.5;"/><text fill="#000000" font-family="Arial" font-size="14" lengthAdjust="spacing" textLength="262.3701" x="211.171" y="191.6517">7.4 Activer/D&#233;sactiver des alertes RH</text></g><!--entity UC7_5--><g class="entity" data-qualified-name="7. Syst.me de Notifications . Suivi.UC7_5" data-source-line="16" id="ent0010"><ellipse cx="342.3599" cy="289.002" fill="#F1F1F1" rx="146.0599" ry="31.612" style="stroke:#181818;stroke-width:0.5;"/><text fill="#000000" font-family="Arial" font-size="14" lengthAdjust="spacing" textLength="274.2715" x="205.2242" y="293.6504">7.5 Recevoir email digest journalier RH</text></g><!--entity UC7_6--><g class="entity" data-qualified-name="7. Syst.me de Notifications . Suivi.UC7_6" data-source-line="18" id="ent0011"><ellipse cx="342.3558" cy="692.9992" fill="#F1F1F1" rx="153.3458" ry="33.0692" style="stroke:#181818;stroke-width:0.5;"/><text fill="#000000" font-family="Arial" font-size="14" lengthAdjust="spacing" textLength="289.4404" x="197.6356" y="697.6476">7.6 Recevoir alerte statut de candidature</text></g><!--entity UC7_7--><g class="entity" data-qualified-name="7. Syst.me de Notifications . Suivi.UC7_7" data-source-line="19" id="ent0012"><ellipse cx="342.3604" cy="803.9981" fill="#F1F1F1" rx="176.6404" ry="37.7281" style="stroke:#181818;stroke-width:0.5;"/><text fill="#000000" font-family="Arial" font-size="14" lengthAdjust="spacing" textLength="337.5859" x="173.5674" y="808.6465">7.7 Recevoir invitation (test/entretien) via email</text></g><!--entity UC7_8--><g class="entity" data-qualified-name="7. Syst.me de Notifications . Suivi.UC7_8" data-source-line="20" id="ent0013"><ellipse cx="342.3622" cy="585.9964" fill="#F1F1F1" rx="156.3322" ry="33.6664" style="stroke:#181818;stroke-width:0.5;"/><text fill="#000000" font-family="Arial" font-size="14" lengthAdjust="spacing" textLength="295.6406" x="194.5419" y="590.6449">7.8 Supprimer des notifications Candidate</text></g><!--entity URH--><g class="entity" data-qualified-name="URH" data-source-line="7" id="ent0002"><ellipse cx="54.3574" cy="259.35" fill="#F1F1F1" rx="8" ry="8" style="stroke:#181818;stroke-width:0.5;"/><path d="M54.3574,267.35 L54.3574,294.35 M41.3574,275.35 L67.3574,275.35 M54.3574,294.35 L41.3574,309.35 M54.3574,294.35 L67.3574,309.35" fill="none" style="stroke:#181818;stroke-width:0.5;"/><text fill="#000000" font-family="Arial" font-size="14" lengthAdjust="spacing" textLength="96.7148" x="6" y="323.8451">Utilisateur RH</text></g><!--entity C--><g class="entity" data-qualified-name="C" data-source-line="8" id="ent0003"><ellipse cx="54.3595" cy="556.35" fill="#F1F1F1" rx="8" ry="8" style="stroke:#181818;stroke-width:0.5;"/><path d="M54.3595,564.35 L54.3595,591.35 M41.3595,572.35 L67.3595,572.35 M54.3595,591.35 L41.3595,606.35 M54.3595,591.35 L67.3595,606.35" fill="none" style="stroke:#181818;stroke-width:0.5;"/><text fill="#000000" font-family="Arial" font-size="14" lengthAdjust="spacing" textLength="62.959" x="22.88" y="620.8451">Candidat</text></g><!--entity EMAIL--><g class="entity" data-qualified-name="EMAIL" data-source-line="9" id="ent0004"><ellipse cx="698.0557" cy="671.4969" fill="#F1F1F1" rx="8" ry="8" style="stroke:#181818;stroke-width:0.5;"/><path d="M698.0557,679.4969 L698.0557,706.4969 M685.0557,687.4969 L711.0557,687.4969 M698.0557,706.4969 L685.0557,721.4969 M698.0557,706.4969 L711.0557,721.4969" fill="none" style="stroke:#181818;stroke-width:0.5;"/><text fill="#000000" font-family="Arial" font-size="14" lengthAdjust="spacing" textLength="104.1113" x="646" y="735.992">Syst&#232;me Email</text><text fill="#000000" font-family="Arial" font-size="14" font-style="italic" lengthAdjust="spacing" textLength="69.3369" x="663.3872" y="659.6951">&#171;System&#187;</text></g><!--link URH to UC7_1--><g class="link" data-entity-1="ent0002" data-entity-2="ent0006" data-link-type="dependency" data-source-line="23" id="lnk14"><path d="M67.71,250.64 C80.77,216.05 104.68,166.25 141.71,137 C160.55,122.12 177.4194,113.0777 200.4394,104.8577" fill="none" id="URH-to-UC7_1" style="stroke:#181818;stroke-width:1;"/><polygon fill="#181818" points="206.09,102.84,196.269,102.0995,201.3812,104.5214,198.9593,109.6336,206.09,102.84" style="stroke:#181818;stroke-width:1;"/></g><!--link URH to UC7_2--><g class="link" data-entity-1="ent0002" data-entity-2="ent0007" data-link-type="dependency" data-source-line="24" id="lnk15"><path d="M69.97,327.44 C83.81,358.78 107.6,401.83 141.71,427 C163.65,443.18 184.3966,452.7177 210.8266,460.5377" fill="none" id="URH-to-UC7_2" style="stroke:#181818;stroke-width:1;"/><polygon fill="#181818" points="216.58,462.24,209.0847,455.8509,211.7855,460.8214,206.815,463.5222,216.58,462.24" style="stroke:#181818;stroke-width:1;"/></g><!--link URH to UC7_3--><g class="link" data-entity-1="ent0002" data-entity-2="ent0008" data-link-type="dependency" data-source-line="25" id="lnk16"><path d="M102.77,321.36 C115.05,328.66 128.54,335.78 141.71,341 C177.15,355.03 212.1338,363.7489 247.6338,370.4389" fill="none" id="URH-to-UC7_3" style="stroke:#181818;stroke-width:1;"/><polygon fill="#181818" points="253.53,371.55,245.4264,365.9525,248.6165,370.624,243.9449,373.8141,253.53,371.55" style="stroke:#181818;stroke-width:1;"/></g><!--link URH to UC7_4--><g class="link" data-entity-1="ent0002" data-entity-2="ent0009" data-link-type="dependency" data-source-line="26" id="lnk17"><path d="M102.9,256.95 C115.17,249.64 128.62,242.44 141.71,237 C171.41,224.66 199.0718,216.2455 230.0218,208.6755" fill="none" id="URH-to-UC7_4" style="stroke:#181818;stroke-width:1;"/><polygon fill="#181818" points="235.85,207.25,226.1574,205.5028,230.9932,208.4379,228.058,213.2737,235.85,207.25" style="stroke:#181818;stroke-width:1;"/></g><!--link URH to UC7_5--><g class="link" data-entity-1="ent0002" data-entity-2="ent0010" data-link-type="dependency" data-source-line="27" id="lnk18"><path d="M102.91,289 C128.72,289 156.16,289 189.8,289" fill="none" id="URH-to-UC7_5" style="stroke:#181818;stroke-width:1;"/><polygon fill="#181818" points="195.8,289,186.8,285,190.8,289,186.8,293,195.8,289" style="stroke:#181818;stroke-width:1;"/></g><!--link C to UC7_6--><g class="link" data-entity-1="ent0003" data-entity-2="ent0011" data-link-type="dependency" data-source-line="29" id="lnk19"><path d="M86.1,608.38 C102.06,619.17 122.25,631.56 141.71,640 C169.76,652.16 195.4711,660.5595 225.0211,668.4095" fill="none" id="C-to-UC7_6" style="stroke:#181818;stroke-width:1;"/><polygon fill="#181818" points="230.82,669.95,223.1487,663.7734,225.9876,668.6663,221.0947,671.5052,230.82,669.95" style="stroke:#181818;stroke-width:1;"/></g><!--link C to UC7_7--><g class="link" data-entity-1="ent0003" data-entity-2="ent0012" data-link-type="dependency" data-source-line="30" id="lnk20"><path d="M66.58,624.61 C79.11,661.06 102.91,714.67 141.71,746 C160.04,760.8 176.3523,769.7665 198.8923,777.9765" fill="none" id="C-to-UC7_7" style="stroke:#181818;stroke-width:1;"/><polygon fill="#181818" points="204.53,780.03,197.4425,773.1914,199.8319,778.3188,194.7045,780.7082,204.53,780.03" style="stroke:#181818;stroke-width:1;"/></g><!--link C to UC7_2--><g class="link" data-entity-1="ent0003" data-entity-2="ent0007" data-link-type="dependency" data-source-line="31" id="lnk21"><path d="M86.08,563.58 C102.03,552.79 122.23,540.4 141.71,532 C170.09,519.78 196.1921,511.396 226.0421,503.656" fill="none" id="C-to-UC7_2" style="stroke:#181818;stroke-width:1;"/><polygon fill="#181818" points="231.85,502.15,222.1341,500.537,227.0101,503.405,224.1421,508.2809,231.85,502.15" style="stroke:#181818;stroke-width:1;"/></g><!--link C to UC7_3--><g class="link" data-entity-1="ent0003" data-entity-2="ent0008" data-link-type="dependency" data-source-line="32" id="lnk22"><path d="M66.15,547.64 C78.42,511.22 102.08,457.74 141.71,428 C169.96,406.8 200.5007,396.479 234.5107,390.499" fill="none" id="C-to-UC7_3" style="stroke:#181818;stroke-width:1;"/><polygon fill="#181818" points="240.42,389.46,230.8633,387.079,235.4955,390.3259,232.2487,394.9581,240.42,389.46" style="stroke:#181818;stroke-width:1;"/></g><!--link C to UC7_8--><g class="link" data-entity-1="ent0003" data-entity-2="ent0013" data-link-type="dependency" data-source-line="33" id="lnk23"><path d="M86.24,586 C111.01,586 141.81,586 179.8,586" fill="none" id="C-to-UC7_8" style="stroke:#181818;stroke-width:1;"/><polygon fill="#181818" points="185.8,586,176.8,582,180.8,586,176.8,590,185.8,586" style="stroke:#181818;stroke-width:1;"/></g><!--link UC7_5 to EMAIL--><g class="link" data-entity-1="ent0010" data-entity-2="ent0004" data-link-type="dependency" data-source-line="35" id="lnk24"><path d="M471.25,304.15 C497.14,311.96 522.63,323.62 543,341 C637.37,421.55 674.8358,564.9706 688.8658,640.6106" fill="none" id="UC7_5-to-EMAIL" style="stroke:#181818;stroke-width:1;"/><polygon fill="#181818" points="689.96,646.51,692.2516,636.9314,689.0481,641.5939,684.3857,638.3904,689.96,646.51" style="stroke:#181818;stroke-width:1;"/><text fill="#000000" font-family="Arial" font-size="13" lengthAdjust="spacing" textLength="63.0068" x="552" y="351.0669">&#171;include&#187;</text></g><!--link UC7_6 to EMAIL--><g class="link" data-entity-1="ent0011" data-entity-2="ent0004" data-link-type="dependency" data-source-line="36" id="lnk25"><path d="M496.18,693 C549.8,693 600.42,693 639.83,693" fill="none" id="UC7_6-to-EMAIL" style="stroke:#181818;stroke-width:1;"/><polygon fill="#181818" points="645.83,693,636.83,689,640.83,693,636.83,697,645.83,693" style="stroke:#181818;stroke-width:1;"/><text fill="#000000" font-family="Arial" font-size="13" lengthAdjust="spacing" textLength="63.0068" x="552" y="689.0669">&#171;include&#187;</text></g><!--link UC7_7 to EMAIL--><g class="link" data-entity-1="ent0012" data-entity-2="ent0004" data-link-type="dependency" data-source-line="37" id="lnk26"><path d="M450.88,773.8 C480.79,765.12 513.24,755.44 543,746 C577.37,735.1 610.0596,723.8999 639.8996,713.4099" fill="none" id="UC7_7-to-EMAIL" style="stroke:#181818;stroke-width:1;"/><polygon fill="#181818" points="645.56,711.42,635.7428,710.6312,640.843,713.0782,638.3959,718.1784,645.56,711.42" style="stroke:#181818;stroke-width:1;"/><text fill="#000000" font-family="Arial" font-size="13" lengthAdjust="spacing" textLength="63.0068" x="552" y="718.0669">&#171;include&#187;</text></g><?plantuml-src VLBRQjj047tVhnXSAEs3cyHsB5E2mQWnAJHvS4XVorGQErElTjMz24hf_zJVuH_BIh8bBRsypMNFp3bdn-vPbMYmWA-OxNT6UvMdMce3hzQBzMgT2jkzo6cBNhgrLku12uALOPI3lj8vMIfXTZae6bJxkZY_59As3fm6mxjd1paRoXnh9GHcBYmSFJcMRD6HDx2v6m5QUDhSdRifgfnpT4qzFLSVVrXt_1t8t1R8ikdTtgy-VeARcxf5nN8fHBq8rKuIZ99tq45oWWVjUCiPrZmil8P7pnMFuAS0y9Ooj0ta2ZQKKQNP04eoZe3L6CioAFOLoJ0tEv7pXbhUQVBbAXuoWNiqtpqPy8e2ibyCcIu27Ubxx2J6Jk5plVoPRH3DOGZanuCBWkNnq66cCMO6gs1lHURYm_5WiOs3PdlIO3kF0tOMOwzxmLJx6ZvhHzR1D-sDGibaXk1h4QFdVzXbNR36rOR_pQXv34zwEAkANUlHcy3ONP1oXXoJUWiLOqkkcvF4SnRXDylIS76IhQA_FfzJJsCXVWaH3Wx6u-Nf0uVP9CgcKJQBik17sYNpGPmCuiaWdWxYHU1GpsWAxIc_3yVCAfC-ft3DpT3_TfD_TLy0?></g></svg>