<svg xmlns="http://www.w3.org/2000/svg" xmlns:xlink="http://www.w3.org/1999/xlink" contentStyleType="text/css" data-diagram-type="DESCRIPTION" height="1235px" preserveAspectRatio="none" style="width:798px;height:1235px;background:#F8FAFC;" version="1.1" viewBox="0 0 798 1235" width="798px" zoomAndPan="magnify"><?plantuml 1.2026.3beta6?><defs/><g><rect fill="#F8FAFC" height="1235" style="stroke:none;stroke-width:1;" width="798" x="0" y="0"/><!--cluster 8. Dashboards & Analytics--><g class="cluster" data-qualified-name="8. Dashboards . Analytics" data-source-line="11" id="ent0005"><rect fill="none" height="1214" rx="2.5" ry="2.5" style="stroke:#181818;stroke-width:1;" width="451.55" x="149.71" y="7"/><text fill="#000000" font-family="Arial" font-size="14" font-weight="700" lengthAdjust="spacing" textLength="207.9014" x="271.5343" y="21.9951">8. Dashboards &amp; Analytics</text></g><!--entity UC8_1--><g class="entity" data-qualified-name="8. Dashboards . Analytics.UC8_1" data-source-line="12" id="ent0006"><ellipse cx="375.4903" cy="75.0041" fill="#F1F1F1" rx="150.6203" ry="32.5241" style="stroke:#181818;stroke-width:0.5;"/><text fill="#000000" font-family="Arial" font-size="14" lengthAdjust="spacing" textLength="283.7734" x="233.6036" y="79.6525">8.1 Visualiser KPI globaux (recrutement)</text></g><!--entity UC8_2--><g class="entity" data-qualified-name="8. Dashboards . Analytics.UC8_2" data-source-line="13" id="ent0007"><ellipse cx="375.4921" cy="178.9984" fill="#F1F1F1" rx="145.7421" ry="31.5484" style="stroke:#181818;stroke-width:0.5;"/><text fill="#000000" font-family="Arial" font-size="14" lengthAdjust="spacing" textLength="273.6084" x="238.6879" y="183.6469">8.2 Suivre le taux de conversion global</text></g><!--entity UC8_3--><g class="entity" data-qualified-name="8. Dashboards . Analytics.UC8_3" data-source-line="14" id="ent0008"><ellipse cx="375.4905" cy="290.0021" fill="#F1F1F1" rx="186.6605" ry="39.7321" style="stroke:#181818;stroke-width:0.5;"/><text fill="#000000" font-family="Arial" font-size="14" lengthAdjust="spacing" textLength="358.1689" x="196.406" y="294.6505">8.3 Voir r&#233;partition des candidats par d&#233;partement</text></g><!--entity UC8_4--><g class="entity" data-qualified-name="8. Dashboards . Analytics.UC8_4" data-source-line="15" id="ent0009"><ellipse cx="375.4877" cy="395.9955" fill="#F1F1F1" rx="118.7277" ry="26.1455" style="stroke:#181818;stroke-width:0.5;"/><text fill="#000000" font-family="Arial" font-size="14" lengthAdjust="spacing" textLength="216.6377" x="267.1688" y="400.644">8.4 T&#233;l&#233;charger les rapports BI</text></g><!--entity UC8_5--><g class="entity" data-qualified-name="8. Dashboards . Analytics.UC8_5" data-source-line="16" id="ent0010"><ellipse cx="375.4852" cy="488.995" fill="#F1F1F1" rx="124.3252" ry="27.265" style="stroke:#181818;stroke-width:0.5;"/><text fill="#000000" font-family="Arial" font-size="14" lengthAdjust="spacing" textLength="228.5596" x="261.2054" y="493.6435">8.5 Suivre tendance sur 30 jours</text></g><!--entity UC8_6--><g class="entity" data-qualified-name="8. Dashboards . Analytics.UC8_6" data-source-line="17" id="ent0011"><ellipse cx="375.4892" cy="591.9998" fill="#F1F1F1" rx="164.5992" ry="35.3198" style="stroke:#181818;stroke-width:0.5;"/><text fill="#000000" font-family="Arial" font-size="14" lengthAdjust="spacing" textLength="312.7578" x="219.1103" y="596.6483">8.6 Consulter Score IA Moyen de l'entreprise</text></g><!--entity UC8_7--><g class="entity" data-qualified-name="8. Dashboards . Analytics.UC8_7" data-source-line="19" id="ent0012"><ellipse cx="375.4938" cy="705.0048" fill="#F1F1F1" rx="177.7238" ry="37.9448" style="stroke:#181818;stroke-width:0.5;"/><text fill="#000000" font-family="Arial" font-size="14" lengthAdjust="spacing" textLength="339.8145" x="205.5865" y="709.6532">8.7 Voir progression et vues de son propre profil</text></g><!--entity UC8_8--><g class="entity" data-qualified-name="8. Dashboards . Analytics.UC8_8" data-source-line="20" id="ent0013"><ellipse cx="375.4877" cy="819.0035" fill="#F1F1F1" rx="169.7677" ry="36.3535" style="stroke:#181818;stroke-width:0.5;"/><text fill="#000000" font-family="Arial" font-size="14" lengthAdjust="spacing" textLength="323.4287" x="213.7733" y="823.652">8.8 Suivre les apparitions dans recherches RH</text></g><!--entity UC8_9--><g class="entity" data-qualified-name="8. Dashboards . Analytics.UC8_9" data-source-line="21" id="ent0014"><ellipse cx="375.4933" cy="940.0047" fill="#F1F1F1" rx="209.7733" ry="44.3547" style="stroke:#181818;stroke-width:0.5;"/><text fill="#000000" font-family="Arial" font-size="14" lengthAdjust="spacing" textLength="405.4395" x="172.7736" y="944.6531">8.9 Dashboard perso : Nombre de candidatures envoy&#233;es</text></g><!--entity UC8_10--><g class="entity" data-qualified-name="8. Dashboards . Analytics.UC8_10" data-source-line="22" id="ent0015"><ellipse cx="375.4852" cy="1054.999" fill="#F1F1F1" rx="141.6952" ry="30.739" style="stroke:#181818;stroke-width:0.5;"/><text fill="#000000" font-family="Arial" font-size="14" lengthAdjust="spacing" textLength="265.1523" x="242.9091" y="1059.6475">8.10 Suivre son propre taux de retour</text></g><!--entity UC8_11--><g class="entity" data-qualified-name="8. Dashboards . Analytics.UC8_11" data-source-line="23" id="ent0016"><ellipse cx="375.4939" cy="1164.9968" fill="#F1F1F1" rx="186.3839" ry="39.6768" style="stroke:#181818;stroke-width:0.5;"/><text fill="#000000" font-family="Arial" font-size="14" lengthAdjust="spacing" textLength="357.6016" x="196.6931" y="1169.6452">8.11 Consulter les recommandations de carri&#232;re IA</text></g><!--entity URH--><g class="entity" data-qualified-name="URH" data-source-line="7" id="ent0002"><ellipse cx="54.3574" cy="313.35" fill="#F1F1F1" rx="8" ry="8" style="stroke:#181818;stroke-width:0.5;"/><path d="M54.3574,321.35 L54.3574,348.35 M41.3574,329.35 L67.3574,329.35 M54.3574,348.35 L41.3574,363.35 M54.3574,348.35 L67.3574,363.35" fill="none" style="stroke:#181818;stroke-width:0.5;"/><text fill="#000000" font-family="Arial" font-size="14" lengthAdjust="spacing" textLength="96.7148" x="6" y="377.8451">Utilisateur RH</text></g><!--entity C--><g class="entity" data-qualified-name="C" data-source-line="8" id="ent0003"><ellipse cx="54.3595" cy="910.35" fill="#F1F1F1" rx="8" ry="8" style="stroke:#181818;stroke-width:0.5;"/><path d="M54.3595,918.35 L54.3595,945.35 M41.3595,926.35 L67.3595,926.35 M54.3595,945.35 L41.3595,960.35 M54.3595,945.35 L67.3595,960.35" fill="none" style="stroke:#181818;stroke-width:0.5;"/><text fill="#000000" font-family="Arial" font-size="14" lengthAdjust="spacing" textLength="62.959" x="22.88" y="974.8451">Candidat</text></g><!--entity IA--><g class="entity" data-qualified-name="IA" data-source-line="9" id="ent0004"><ellipse cx="747.9285" cy="1143.4969" fill="#F1F1F1" rx="8" ry="8" style="stroke:#181818;stroke-width:0.5;"/><path d="M747.9285,1151.4969 L747.9285,1178.4969 M734.9285,1159.4969 L760.9285,1159.4969 M747.9285,1178.4969 L734.9285,1193.4969 M747.9285,1178.4969 L760.9285,1193.4969" fill="none" style="stroke:#181818;stroke-width:0.5;"/><text fill="#000000" font-family="Arial" font-size="14" lengthAdjust="spacing" textLength="67.5322" x="714.1623" y="1207.992">Moteur IA</text><text fill="#000000" font-family="Arial" font-size="14" font-style="italic" lengthAdjust="spacing" textLength="69.3369" x="713.26" y="1131.6951">&#171;System&#187;</text></g><!--link URH to UC8_1--><g class="link" data-entity-1="ent0002" data-entity-2="ent0006" data-link-type="dependency" data-source-line="26" id="lnk17"><path d="M59.79,304.73 C67.54,255.96 88.2,172.54 141.71,127 C166.86,105.6 193.1028,93.9097 225.3428,85.9997" fill="none" id="URH-to-UC8_1" style="stroke:#181818;stroke-width:1;"/><polygon fill="#181818" points="231.17,84.57,221.4761,82.8297,226.314,85.7614,223.3824,90.5993,231.17,84.57" style="stroke:#181818;stroke-width:1;"/></g><!--link URH to UC8_2--><g class="link" data-entity-1="ent0002" data-entity-2="ent0007" data-link-type="dependency" data-source-line="27" id="lnk18"><path d="M75.33,304.5 C90.29,279.48 113.08,248.23 141.71,230 C171.38,211.11 201.1402,200.4393 235.5002,192.8793" fill="none" id="URH-to-UC8_2" style="stroke:#181818;stroke-width:1;"/><polygon fill="#181818" points="241.36,191.59,231.7107,189.6174,236.4768,192.6644,233.4298,197.4305,241.36,191.59" style="stroke:#181818;stroke-width:1;"/></g><!--link URH to UC8_3--><g class="link" data-entity-1="ent0002" data-entity-2="ent0008" data-link-type="dependency" data-source-line="28" id="lnk19"><path d="M103.13,335.07 C136.26,329.56 176.3812,322.9038 221.1412,315.4638" fill="none" id="URH-to-UC8_3" style="stroke:#181818;stroke-width:1;"/><polygon fill="#181818" points="227.06,314.48,217.5259,312.0099,222.1277,315.2999,218.8377,319.9016,227.06,314.48" style="stroke:#181818;stroke-width:1;"/></g><!--link URH to UC8_4--><g class="link" data-entity-1="ent0002" data-entity-2="ent0009" data-link-type="dependency" data-source-line="29" id="lnk20"><path d="M103.13,350.93 C149.56,358.64 215.4411,369.5866 273.5211,379.2366" fill="none" id="URH-to-UC8_4" style="stroke:#181818;stroke-width:1;"/><polygon fill="#181818" points="279.44,380.22,271.2173,374.799,274.5076,379.4005,269.9061,382.6908,279.44,380.22" style="stroke:#181818;stroke-width:1;"/></g><!--link URH to UC8_5--><g class="link" data-entity-1="ent0002" data-entity-2="ent0010" data-link-type="dependency" data-source-line="30" id="lnk21"><path d="M79.6,381.5 C94.88,402.58 116.47,427.33 141.71,442 C176.38,462.14 212.3874,472.7399 251.0474,479.4099" fill="none" id="URH-to-UC8_5" style="stroke:#181818;stroke-width:1;"/><polygon fill="#181818" points="256.96,480.43,248.7711,474.9581,252.0328,479.5799,247.411,482.8416,256.96,480.43" style="stroke:#181818;stroke-width:1;"/></g><!--link URH to UC8_6--><g class="link" data-entity-1="ent0002" data-entity-2="ent0011" data-link-type="dependency" data-source-line="31" id="lnk22"><path d="M62.05,381.38 C71.77,425.37 94.13,496.48 141.71,536 C165.54,555.78 189.436,567.1689 219.526,575.6689" fill="none" id="URH-to-UC8_6" style="stroke:#181818;stroke-width:1;"/><polygon fill="#181818" points="225.3,577.3,217.7263,571.004,220.4883,575.9408,215.5515,578.7027,225.3,577.3" style="stroke:#181818;stroke-width:1;"/></g><!--link C to UC8_7--><g class="link" data-entity-1="ent0003" data-entity-2="ent0012" data-link-type="dependency" data-source-line="33" id="lnk23"><path d="M63.91,901.52 C74.95,861 98.13,798.28 141.71,763 C164.21,744.79 185.9189,733.9661 213.9589,725.2761" fill="none" id="C-to-UC8_7" style="stroke:#181818;stroke-width:1;"/><polygon fill="#181818" points="219.69,723.5,209.9093,722.3435,214.9141,724.9801,212.2775,729.9849,219.69,723.5" style="stroke:#181818;stroke-width:1;"/></g><!--link C to UC8_8--><g class="link" data-entity-1="ent0003" data-entity-2="ent0013" data-link-type="dependency" data-source-line="34" id="lnk24"><path d="M86.21,912.42 C101.88,899.69 121.78,885.36 141.71,876 C172.97,861.32 202.6074,851.6183 236.2574,843.2483" fill="none" id="C-to-UC8_8" style="stroke:#181818;stroke-width:1;"/><polygon fill="#181818" points="242.08,841.8,232.3806,840.0907,237.2278,843.0069,234.3117,847.8542,242.08,841.8" style="stroke:#181818;stroke-width:1;"/></g><!--link C to UC8_9--><g class="link" data-entity-1="ent0003" data-entity-2="ent0014" data-link-type="dependency" data-source-line="35" id="lnk25"><path d="M86.25,940 C106.35,940 128.51,940 159.43,940" fill="none" id="C-to-UC8_9" style="stroke:#181818;stroke-width:1;"/><polygon fill="#181818" points="165.43,940,156.43,936,160.43,940,156.43,944,165.43,940" style="stroke:#181818;stroke-width:1;"/></g><!--link C to UC8_10--><g class="link" data-entity-1="ent0003" data-entity-2="ent0015" data-link-type="dependency" data-source-line="36" id="lnk26"><path d="M86.11,967.8 C101.76,980.58 121.67,994.89 141.71,1004 C176.83,1019.97 211.3733,1029.8599 248.5733,1037.5199" fill="none" id="C-to-UC8_10" style="stroke:#181818;stroke-width:1;"/><polygon fill="#181818" points="254.45,1038.73,246.4417,1032.9971,249.5527,1037.7216,244.8282,1040.8327,254.45,1038.73" style="stroke:#181818;stroke-width:1;"/></g><!--link C to UC8_11--><g class="link" data-entity-1="ent0003" data-entity-2="ent0016" data-link-type="dependency" data-source-line="37" id="lnk27"><path d="M65.38,978.56 C77.27,1016.6 100.84,1073.64 141.71,1106 C163.37,1123.14 183.7054,1133.5105 210.3954,1142.2105" fill="none" id="C-to-UC8_11" style="stroke:#181818;stroke-width:1;"/><polygon fill="#181818" points="216.1,1144.07,208.7828,1137.4777,211.3462,1142.5204,206.3035,1145.0838,216.1,1144.07" style="stroke:#181818;stroke-width:1;"/></g><!--link UC8_11 to IA--><g class="link" data-entity-1="ent0016" data-entity-2="ent0004" data-link-type="dependency" data-source-line="39" id="lnk28"><path d="M562.25,1165 C619.48,1165 670.64,1165 705.87,1165" fill="none" id="UC8_11-to-IA" style="stroke:#181818;stroke-width:1;"/><polygon fill="#181818" points="711.87,1165,702.87,1161,706.87,1165,702.87,1169,711.87,1165" style="stroke:#181818;stroke-width:1;"/><text fill="#000000" font-family="Arial" font-size="13" lengthAdjust="spacing" textLength="63.0068" x="618.26" y="1161.0669">&#171;include&#187;</text></g><?plantuml-src NLFRRjf047ttLuoerCj3AWWt4qL8r1KAgX9LeSbhDTY3sRBiMhDhL5JrVyfty6CT6_0b3xPtPlUSFNDcxBRAPCYuWnN6svHjRfB8QilmRXxEP_CeSDM9XDQOQp-tnZ_XZc362dLZtzY476Kmw3QIZ6PR94VTGDFQWxV0AjruI1HJx9KrGO2nbmixBrvfvT1Jpl3yq05qyFBySDsDq2GgGL_ceslsqPR75xColPZ1_Vtou3pjfjCWA2v0asg2JlWPlgBRh2nouk0zp0pgWrUnwy2V021t5AChp_NWLRaSHGanVFk-W5JR5UQ_uQFGSIxKPFodixee_DbheszXcQiz4yYbla0b1B4rUs8dfPwvT0M-ROFxy6eL0v-EufrNXJc2Tn1VIdSWUKZEswMEYgdVPXh0ZzDHduxn1ZcLEhImC6QPPI7vigXWWpPiU5NloIHeOW8dvlQxyClcx2hKi8qQGMIDaycGYvQn5RZquT4Ug50F-eFePCfO3AqOHa6ROdokF6ERChdIAlAmpqMsK3W9PIiJPlciLMtWk4qJrkuxa7AHInE51EKb_TiGo-EgyHAAi4qngUS4CkcQXJjuihkLa1Qjl7GY5vL0PcyFfoFLnapUZ5BtggTHmNKgcBoOMizHzmssrt2rR1_5ThUJ-_5IKg66MPt-bORNHBtWRn38ZmCtDzFBY3QZsrRKRqM3LZHiHTAog0h6ZNNOM4yQQwce4VH4K_ajKp8WT_AhAXFhFA7fz3y0?></g></svg>