<svg xmlns="http://www.w3.org/2000/svg" xmlns:xlink="http://www.w3.org/1999/xlink" contentStyleType="text/css" data-diagram-type="DESCRIPTION" height="1543px" preserveAspectRatio="none" style="width:1333px;height:1543px;background:#F8FAFC;" version="1.1" viewBox="0 0 1333 1543" width="1333px" zoomAndPan="magnify"><?plantuml 1.2026.3beta6?><defs/><g><rect fill="#F8FAFC" height="1543" style="stroke:none;stroke-width:1;" width="1333" x="0" y="0"/><!--cluster 1A. Authentification, Profil & Param?tres (Candidat)--><g class="cluster" data-qualified-name="1A. Authentification. Profil . Param.tres .Candidat." data-source-line="11" id="ent0005"><rect fill="none" height="1522" rx="2.5" ry="2.5" style="stroke:#181818;stroke-width:1;" width="933.88" x="115.96" y="7"/><text fill="#000000" font-family="Arial" font-size="14" font-weight="700" lengthAdjust="spacing" textLength="413.4238" x="376.1881" y="21.9951">1A. Authentification, Profil &amp; Param&#232;tres (Candidat)</text></g><!--entity UC1_1--><g class="entity" data-qualified-name="1A. Authentification. Profil . Param.tres .Candidat..UC1_1" data-source-line="12" id="ent0006"><ellipse cx="324.8322" cy="68.9964" fill="#F1F1F1" rx="122.4822" ry="26.8964" style="stroke:#181818;stroke-width:0.5;"/><text fill="#000000" font-family="Arial" font-size="14" lengthAdjust="spacing" textLength="224.6426" x="212.5109" y="73.6449">1.1 S'inscrire (Cr&#233;er un compte)</text></g><!--entity UC1_2--><g class="entity" data-qualified-name="1A. Authentification. Profil . Param.tres .Candidat..UC1_2" data-source-line="13" id="ent0007"><ellipse cx="838.2651" cy="116.997" fill="#F1F1F1" rx="101.6851" ry="22.737" style="stroke:#181818;stroke-width:0.5;"/><text fill="#000000" font-family="Arial" font-size="14" lengthAdjust="spacing" textLength="179.7646" x="748.3828" y="121.6455">1.2 S'authentifier via SSO</text></g><!--entity UC1_3--><g class="entity" data-qualified-name="1A. Authentification. Profil . Param.tres .Candidat..UC1_3" data-source-line="14" id="ent0008"><ellipse cx="324.8274" cy="152.9995" fill="#F1F1F1" rx="75.0474" ry="17.4095" style="stroke:#181818;stroke-width:0.5;"/><text fill="#000000" font-family="Arial" font-size="14" lengthAdjust="spacing" textLength="118.8428" x="265.406" y="157.6479">1.3 Se connecter</text></g><!--entity UC1_4--><g class="entity" data-qualified-name="1A. Authentification. Profil . Param.tres .Candidat..UC1_4" data-source-line="15" id="ent0009"><ellipse cx="324.8321" cy="241.9964" fill="#F1F1F1" rx="145.1821" ry="31.4364" style="stroke:#181818;stroke-width:0.5;"/><text fill="#000000" font-family="Arial" font-size="14" lengthAdjust="spacing" textLength="272.4395" x="188.6123" y="246.6449">1.4 R&#233;initialiser le mot de passe oubli&#233;</text></g><!--entity UC1_5--><g class="entity" data-qualified-name="1A. Authentification. Profil . Param.tres .Candidat..UC1_5" data-source-line="16" id="ent0010"><ellipse cx="324.8283" cy="332.0037" fill="#F1F1F1" rx="82.4183" ry="18.8837" style="stroke:#181818;stroke-width:0.5;"/><text fill="#000000" font-family="Arial" font-size="14" lengthAdjust="spacing" textLength="136.3428" x="256.6569" y="336.6521">1.5 Se d&#233;connecter</text></g><!--entity UC1_6--><g class="entity" data-qualified-name="1A. Authentification. Profil . Param.tres .Candidat..UC1_6" data-source-line="18" id="ent0011"><ellipse cx="324.8307" cy="420.9961" fill="#F1F1F1" rx="138.4807" ry="30.0961" style="stroke:#181818;stroke-width:0.5;"/><text fill="#000000" font-family="Arial" font-size="14" lengthAdjust="spacing" textLength="258.4189" x="195.6212" y="425.6446">1.6 Renseigner informations de base</text></g><!--entity UC1_7--><g class="entity" data-qualified-name="1A. Authentification. Profil . Param.tres .Candidat..UC1_7" data-source-line="19" id="ent0012"><ellipse cx="324.8289" cy="518.0018" fill="#F1F1F1" rx="120.1589" ry="26.4318" style="stroke:#181818;stroke-width:0.5;"/><text fill="#000000" font-family="Arial" font-size="14" lengthAdjust="spacing" textLength="219.6934" x="214.9823" y="522.6502">1.7 Importer un CV / Document</text></g><!--entity UC1_8--><g class="entity" data-qualified-name="1A. Authentification. Profil . Param.tres .Candidat..UC1_8" data-source-line="20" id="ent0013"><ellipse cx="838.2697" cy="518.0039" fill="#F1F1F1" rx="195.5697" ry="41.5139" style="stroke:#181818;stroke-width:0.5;"/><text fill="#000000" font-family="Arial" font-size="14" lengthAdjust="spacing" textLength="376.4209" x="650.0593" y="522.6524">1.8 Extraction automatique des donn&#233;es (Parsing CV)</text></g><!--entity UC1_9--><g class="entity" data-qualified-name="1A. Authentification. Profil . Param.tres .Candidat..UC1_9" data-source-line="21" id="ent0014"><ellipse cx="324.8314" cy="625.0043" fill="#F1F1F1" rx="192.8714" ry="40.9743" style="stroke:#181818;stroke-width:0.5;"/><text fill="#000000" font-family="Arial" font-size="14" lengthAdjust="spacing" textLength="370.8975" x="139.3827" y="629.6527">1.9 G&#233;rer ses exp&#233;riences, formations, comp&#233;tences</text></g><!--entity UC1_10--><g class="entity" data-qualified-name="1A. Authentification. Profil . Param.tres .Candidat..UC1_10" data-source-line="22" id="ent0015"><ellipse cx="324.8324" cy="737.9985" fill="#F1F1F1" rx="149.5924" ry="32.3185" style="stroke:#181818;stroke-width:0.5;"/><text fill="#000000" font-family="Arial" font-size="14" lengthAdjust="spacing" textLength="281.6338" x="184.0155" y="742.6469">1.10 Ajouter un portfolio / liens (GitHub)</text></g><!--entity UC1_11--><g class="entity" data-qualified-name="1A. Authentification. Profil . Param.tres .Candidat..UC1_11" data-source-line="24" id="ent0016"><ellipse cx="324.8349" cy="836.999" fill="#F1F1F1" rx="120.5949" ry="26.519" style="stroke:#181818;stroke-width:0.5;"/><text fill="#000000" font-family="Arial" font-size="14" lengthAdjust="spacing" textLength="220.623" x="214.5234" y="841.6474">1.11 Modifier son mot de passe</text></g><!--entity UC1_12--><g class="entity" data-qualified-name="1A. Authentification. Profil . Param.tres .Candidat..UC1_12" data-source-line="25" id="ent0017"><ellipse cx="324.8299" cy="942" fill="#F1F1F1" rx="179.1999" ry="38.24" style="stroke:#181818;stroke-width:0.5;"/><text fill="#000000" font-family="Arial" font-size="14" lengthAdjust="spacing" textLength="342.8496" x="153.4051" y="946.6484">1.12 G&#233;rer la visibilit&#233; de son profil (Public/Priv&#233;)</text></g><!--entity UC1_13--><g class="entity" data-qualified-name="1A. Authentification. Profil . Param.tres .Candidat..UC1_13" data-source-line="26" id="ent0018"><ellipse cx="324.8305" cy="1052.0021" fill="#F1F1F1" rx="148.0105" ry="32.0021" style="stroke:#181818;stroke-width:0.5;"/><text fill="#000000" font-family="Arial" font-size="14" lengthAdjust="spacing" textLength="278.3389" x="185.6611" y="1056.6505">1.13 Ajuster pr&#233;f&#233;rences de notification</text></g><!--entity UC1_14--><g class="entity" data-qualified-name="1A. Authentification. Profil . Param.tres .Candidat..UC1_14" data-source-line="27" id="ent0019"><ellipse cx="324.8294" cy="1160.9999" fill="#F1F1F1" rx="171.2994" ry="36.6599" style="stroke:#181818;stroke-width:0.5;"/><text fill="#000000" font-family="Arial" font-size="14" lengthAdjust="spacing" textLength="326.5869" x="161.5359" y="1165.6483">1.14 Activer/d&#233;sactiver suggestions d'offres IA</text></g><!--entity UC1_15--><g class="entity" data-qualified-name="1A. Authentification. Profil . Param.tres .Candidat..UC1_15" data-source-line="28" id="ent0020"><ellipse cx="324.8334" cy="1276.9987" fill="#F1F1F1" rx="182.6434" ry="38.9287" style="stroke:#181818;stroke-width:0.5;"/><text fill="#000000" font-family="Arial" font-size="14" lengthAdjust="spacing" textLength="349.9248" x="149.871" y="1281.6471">1.15 Consulter politique de confidentialit&#233; (RGPD)</text></g><!--entity UC1_16--><g class="entity" data-qualified-name="1A. Authentification. Profil . Param.tres .Candidat..UC1_16" data-source-line="29" id="ent0021"><ellipse cx="324.832" cy="1389.9984" fill="#F1F1F1" rx="160.792" ry="34.5584" style="stroke:#181818;stroke-width:0.5;"/><text fill="#000000" font-family="Arial" font-size="14" lengthAdjust="spacing" textLength="304.8828" x="172.3906" y="1394.6468">1.16 T&#233;l&#233;charger ses donn&#233;es personnelles</text></g><!--entity UC1_17--><g class="entity" data-qualified-name="1A. Authentification. Profil . Param.tres .Candidat..UC1_17" data-source-line="30" id="ent0022"><ellipse cx="324.8324" cy="1489.0045" fill="#F1F1F1" rx="108.8224" ry="24.1645" style="stroke:#181818;stroke-width:0.5;"/><text fill="#000000" font-family="Arial" font-size="14" lengthAdjust="spacing" textLength="195.3301" x="227.1674" y="1493.6529">1.17 Supprimer son compte</text></g><!--entity C--><g class="entity" data-qualified-name="C" data-source-line="7" id="ent0002"><ellipse cx="37.4795" cy="708.35" fill="#F1F1F1" rx="8" ry="8" style="stroke:#181818;stroke-width:0.5;"/><path d="M37.4795,716.35 L37.4795,743.35 M24.4795,724.35 L50.4795,724.35 M37.4795,743.35 L24.4795,758.35 M37.4795,743.35 L50.4795,758.35" fill="none" style="stroke:#181818;stroke-width:0.5;"/><text fill="#000000" font-family="Arial" font-size="14" lengthAdjust="spacing" textLength="62.959" x="6" y="772.8451">Candidat</text></g><!--entity OAUTH--><g class="entity" data-qualified-name="OAUTH" data-source-line="8" id="ent0003"><ellipse cx="1239.5524" cy="95.4969" fill="#F1F1F1" rx="8" ry="8" style="stroke:#181818;stroke-width:0.5;"/><path d="M1239.5524,103.4969 L1239.5524,130.4969 M1226.5524,111.4969 L1252.5524,111.4969 M1239.5524,130.4969 L1226.5524,145.4969 M1239.5524,130.4969 L1252.5524,145.4969" fill="none" style="stroke:#181818;stroke-width:0.5;"/><text fill="#000000" font-family="Arial" font-size="14" lengthAdjust="spacing" textLength="157.4248" x="1160.84" y="159.992">SSO (Google/LinkedIn)</text><text fill="#000000" font-family="Arial" font-size="14" font-style="italic" lengthAdjust="spacing" textLength="69.3369" x="1204.8839" y="83.6951">&#171;System&#187;</text></g><!--entity IA--><g class="entity" data-qualified-name="IA" data-source-line="9" id="ent0004"><ellipse cx="1239.5585" cy="496.4969" fill="#F1F1F1" rx="8" ry="8" style="stroke:#181818;stroke-width:0.5;"/><path d="M1239.5585,504.4969 L1239.5585,531.4969 M1226.5585,512.4969 L1252.5585,512.4969 M1239.5585,531.4969 L1226.5585,546.4969 M1239.5585,531.4969 L1252.5585,546.4969" fill="none" style="stroke:#181818;stroke-width:0.5;"/><text fill="#000000" font-family="Arial" font-size="14" lengthAdjust="spacing" textLength="67.5322" x="1205.7923" y="560.992">Moteur IA</text><text fill="#000000" font-family="Arial" font-size="14" font-style="italic" lengthAdjust="spacing" textLength="69.3369" x="1204.89" y="484.6951">&#171;System&#187;</text></g><!--link C to UC1_1--><g class="link" data-entity-1="ent0002" data-entity-2="ent0006" data-link-type="dependency" data-source-line="33" id="lnk23"><path d="M40.14,699.43 C46.06,570.28 67.94,158.73 107.96,116 C132.28,90.03 161.4096,77.7988 196.1996,71.3788" fill="none" id="C-to-UC1_1" style="stroke:#181818;stroke-width:1;"/><polygon fill="#181818" points="202.1,70.29,192.5235,67.9897,197.183,71.1974,193.9753,75.8568,202.1,70.29" style="stroke:#181818;stroke-width:1;"/></g><!--link C to UC1_3--><g class="link" data-entity-1="ent0002" data-entity-2="ent0008" data-link-type="dependency" data-source-line="34" id="lnk24"><path d="M40.75,699.59 C48.1,581.24 72.83,227.85 107.96,191 C145.37,151.75 202.0219,144.2682 250.2219,145.4882" fill="none" id="C-to-UC1_3" style="stroke:#181818;stroke-width:1;"/><polygon fill="#181818" points="256.22,145.64,247.3241,141.4136,251.2216,145.5135,247.1217,149.411,256.22,145.64" style="stroke:#181818;stroke-width:1;"/></g><!--link C to UC1_4--><g class="link" data-entity-1="ent0002" data-entity-2="ent0009" data-link-type="dependency" data-source-line="35" id="lnk25"><path d="M39.16,699.41 C41.68,602.4 53.45,351.89 107.96,293 C128.04,271.31 149.6988,259.6456 178.2888,251.7056" fill="none" id="C-to-UC1_4" style="stroke:#181818;stroke-width:1;"/><polygon fill="#181818" points="184.07,250.1,174.3278,248.6542,179.2523,251.438,176.4686,256.3625,184.07,250.1" style="stroke:#181818;stroke-width:1;"/></g><!--link C to UC1_5--><g class="link" data-entity-1="ent0002" data-entity-2="ent0010" data-link-type="dependency" data-source-line="36" id="lnk26"><path d="M40.39,699.55 C45.41,614.98 61.91,416.66 107.96,371 C143.79,335.47 194.3605,326.3491 240.6005,325.7391" fill="none" id="C-to-UC1_5" style="stroke:#181818;stroke-width:1;"/><polygon fill="#181818" points="246.6,325.66,237.548,321.7791,241.6004,325.726,237.6535,329.7784,246.6,325.66" style="stroke:#181818;stroke-width:1;"/></g><!--link C to UC1_6--><g class="link" data-entity-1="ent0002" data-entity-2="ent0011" data-link-type="dependency" data-source-line="38" id="lnk27"><path d="M43.64,699.35 C53.2,633.48 75.69,503.52 107.96,472 C130.41,450.07 154.6329,438.4 185.1429,430.69" fill="none" id="C-to-UC1_6" style="stroke:#181818;stroke-width:1;"/><polygon fill="#181818" points="190.96,429.22,181.2543,427.5469,186.1124,430.445,183.2143,435.3031,190.96,429.22" style="stroke:#181818;stroke-width:1;"/></g><!--link C to UC1_7--><g class="link" data-entity-1="ent0002" data-entity-2="ent0012" data-link-type="dependency" data-source-line="39" id="lnk28"><path d="M43.21,699.69 C50.23,659.75 67.3,598.28 107.96,564 C135.21,541.03 165.25,529.771 199.97,523.351" fill="none" id="C-to-UC1_7" style="stroke:#181818;stroke-width:1;"/><polygon fill="#181818" points="205.87,522.26,196.2927,519.9631,200.9533,523.1691,197.7473,527.8298,205.87,522.26" style="stroke:#181818;stroke-width:1;"/></g><!--link C to UC1_9--><g class="link" data-entity-1="ent0002" data-entity-2="ent0014" data-link-type="dependency" data-source-line="40" id="lnk29"><path d="M69.39,711.04 C80.89,702.07 94.45,692.67 107.96,686 C133.45,673.41 156.2071,664.7676 183.9371,656.3776" fill="none" id="C-to-UC1_9" style="stroke:#181818;stroke-width:1;"/><polygon fill="#181818" points="189.68,654.64,179.9073,653.4178,184.8943,656.088,182.224,661.075,189.68,654.64" style="stroke:#181818;stroke-width:1;"/></g><!--link C to UC1_10--><g class="link" data-entity-1="ent0002" data-entity-2="ent0015" data-link-type="dependency" data-source-line="41" id="lnk30"><path d="M69.29,738 C95.37,738 128.83,738 168.93,738" fill="none" id="C-to-UC1_10" style="stroke:#181818;stroke-width:1;"/><polygon fill="#181818" points="174.93,738,165.93,734,169.93,738,165.93,742,174.93,738" style="stroke:#181818;stroke-width:1;"/></g><!--link C to UC1_11--><g class="link" data-entity-1="ent0002" data-entity-2="ent0016" data-link-type="dependency" data-source-line="43" id="lnk31"><path d="M69.17,765.42 C80.65,774.44 94.25,783.74 107.96,790 C142.85,805.93 177.5295,815.4487 214.0195,822.5187" fill="none" id="C-to-UC1_11" style="stroke:#181818;stroke-width:1;"/><polygon fill="#181818" points="219.91,823.66,211.8352,818.0211,215.0013,822.7089,210.3135,825.875,219.91,823.66" style="stroke:#181818;stroke-width:1;"/></g><!--link C to UC1_12--><g class="link" data-entity-1="ent0002" data-entity-2="ent0017" data-link-type="dependency" data-source-line="44" id="lnk32"><path d="M47.15,776.54 C56.59,809.73 74.96,856.51 107.96,884 C127.49,900.27 145.4908,910.0452 169.9008,918.5052" fill="none" id="C-to-UC1_12" style="stroke:#181818;stroke-width:1;"/><polygon fill="#181818" points="175.57,920.47,168.3761,913.7433,170.8457,918.8327,165.7564,921.3022,175.57,920.47" style="stroke:#181818;stroke-width:1;"/></g><!--link C to UC1_13--><g class="link" data-entity-1="ent0002" data-entity-2="ent0018" data-link-type="dependency" data-source-line="45" id="lnk33"><path d="M43.81,776.57 C53.56,841.6 76.24,969 107.96,1000 C128.91,1020.48 150.6764,1031.7473 179.0364,1039.7673" fill="none" id="C-to-UC1_13" style="stroke:#181818;stroke-width:1;"/><polygon fill="#181818" points="184.81,1041.4,177.2381,1035.1019,179.9987,1040.0394,175.0611,1042.8,184.81,1041.4" style="stroke:#181818;stroke-width:1;"/></g><!--link C to UC1_14--><g class="link" data-entity-1="ent0002" data-entity-2="ent0019" data-link-type="dependency" data-source-line="46" id="lnk34"><path d="M40.69,776.4 C46.31,860.4 63.92,1056.74 107.96,1104 C125.27,1122.57 142.2129,1133.325 166.2429,1142.085" fill="none" id="C-to-UC1_14" style="stroke:#181818;stroke-width:1;"/><polygon fill="#181818" points="171.88,1144.14,164.7943,1137.2995,167.1824,1142.4275,162.0543,1144.8156,171.88,1144.14" style="stroke:#181818;stroke-width:1;"/></g><!--link C to UC1_15--><g class="link" data-entity-1="ent0002" data-entity-2="ent0020" data-link-type="dependency" data-source-line="47" id="lnk35"><path d="M38.79,776.48 C40.41,878.51 50.17,1152.63 107.96,1218 C123.66,1235.76 138.5703,1246.1439 160.6503,1255.1039" fill="none" id="C-to-UC1_15" style="stroke:#181818;stroke-width:1;"/><polygon fill="#181818" points="166.21,1257.36,159.3746,1250.2694,161.5769,1255.4799,156.3664,1257.6823,166.21,1257.36" style="stroke:#181818;stroke-width:1;"/></g><!--link C to UC1_16--><g class="link" data-entity-1="ent0002" data-entity-2="ent0021" data-link-type="dependency" data-source-line="48" id="lnk36"><path d="M40.43,776.29 C47.13,901.6 70.93,1293.84 107.96,1336 C125.42,1355.88 143.3184,1367.0615 168.4784,1375.6015" fill="none" id="C-to-UC1_16" style="stroke:#181818;stroke-width:1;"/><polygon fill="#181818" points="174.16,1377.53,166.9232,1370.8495,169.4253,1375.9229,164.3519,1378.425,174.16,1377.53" style="stroke:#181818;stroke-width:1;"/></g><!--link C to UC1_17--><g class="link" data-entity-1="ent0002" data-entity-2="ent0022" data-link-type="dependency" data-source-line="49" id="lnk37"><path d="M39.63,776.33 C44.17,916.4 62.89,1395.03 107.96,1445 C135.18,1475.18 171.029,1487.2066 210.629,1491.7466" fill="none" id="C-to-UC1_17" style="stroke:#181818;stroke-width:1;"/><polygon fill="#181818" points="216.59,1492.43,208.1042,1487.4309,211.6225,1491.8605,207.193,1495.3789,216.59,1492.43" style="stroke:#181818;stroke-width:1;"/></g><!--reverse link UC1_1 to UC1_2--><g class="link" data-entity-1="ent0006" data-entity-2="ent0007" data-link-type="dependency" data-source-line="51" id="lnk38"><path d="M444.0437,80.0909 C535.6337,88.6909 657.57,100.13 743.7,108.22" fill="none" id="UC1_1-backto-UC1_2" style="stroke:#181818;stroke-width:1;stroke-dasharray:7,7;"/><polygon fill="#181818" points="438.07,79.53,446.6566,84.3539,443.0481,79.9974,447.4045,76.3889,438.07,79.53" style="stroke:#181818;stroke-width:1;"/><text fill="#000000" font-family="Arial" font-size="13" lengthAdjust="spacing" textLength="61.1851" x="549.7" y="87.0669">&#171;extend&#187;</text></g><!--reverse link UC1_3 to UC1_2--><g class="link" data-entity-1="ent0008" data-entity-2="ent0007" data-link-type="dependency" data-source-line="52" id="lnk39"><path d="M405.9082,151.4831 C463.8882,150.0631 540.51,147.4 612.7,142 C657.79,138.63 707.79,133.23 749.15,128.31" fill="none" id="UC1_3-backto-UC1_2" style="stroke:#181818;stroke-width:1;stroke-dasharray:7,7;"/><polygon fill="#181818" points="399.91,151.63,409.0052,155.4084,404.9085,151.5076,408.8094,147.4108,399.91,151.63" style="stroke:#181818;stroke-width:1;"/><text fill="#000000" font-family="Arial" font-size="13" lengthAdjust="spacing" textLength="61.1851" x="549.7" y="138.0669">&#171;extend&#187;</text></g><!--link UC1_2 to OAUTH--><g class="link" data-entity-1="ent0007" data-entity-2="ent0003" data-link-type="dependency" data-source-line="53" id="lnk40"><path d="M940.29,117 C1008.67,117 1091.68,117 1154.6,117" fill="none" id="UC1_2-to-OAUTH" style="stroke:#181818;stroke-width:1;"/><polygon fill="#181818" points="1160.6,117,1151.6,113,1155.6,117,1151.6,121,1160.6,117" style="stroke:#181818;stroke-width:1;"/><text fill="#000000" font-family="Arial" font-size="13" lengthAdjust="spacing" textLength="63.0068" x="1066.84" y="113.0669">&#171;include&#187;</text></g><!--link UC1_7 to UC1_8--><g class="link" data-entity-1="ent0012" data-entity-2="ent0013" data-link-type="dependency" data-source-line="55" id="lnk41"><path d="M445.42,518 C504.02,518 570.08,518 636.35,518" fill="none" id="UC1_7-to-UC1_8" style="stroke:#181818;stroke-width:1;stroke-dasharray:7,7;"/><polygon fill="#181818" points="642.35,518,633.35,514,637.35,518,633.35,522,642.35,518" style="stroke:#181818;stroke-width:1;"/><text fill="#000000" font-family="Arial" font-size="13" lengthAdjust="spacing" textLength="63.0068" x="548.7" y="514.0669">&#171;include&#187;</text></g><!--link UC1_8 to IA--><g class="link" data-entity-1="ent0013" data-entity-2="ent0004" data-link-type="dependency" data-source-line="56" id="lnk42"><path d="M1034.23,518 C1099.16,518 1158.76,518 1197.51,518" fill="none" id="UC1_8-to-IA" style="stroke:#181818;stroke-width:1;"/><polygon fill="#181818" points="1203.51,518,1194.51,514,1198.51,518,1194.51,522,1203.51,518" style="stroke:#181818;stroke-width:1;"/><text fill="#000000" font-family="Arial" font-size="13" lengthAdjust="spacing" textLength="63.0068" x="1066.84" y="514.0669">&#171;include&#187;</text></g><?plantuml-src VLJjRfim5FtFKrnrqff9RHBotQcgXDYIHbhNg6dtTtB0K2zWCzjKdQQzptWENcpNa113fVt2sFUUSy-znrPxnZCYIGex4knZAN8U-Y8H4juj5qjlwJkgYGXfHF94BmNNNqbAmPEC9DOv5o5LD8F9qDgKXE_Dvcpe93JIe0L85Zzh29caWMQ2Emu9D1AU-OI7B2Jw38W2_xYxtTv3RoL4dD315yRtD5pp3rN8lVVqU0lNrzjVIjFqvkQOSISqpIMilIfgxTaXZY4b7C7WpFNwuENwcNBD8XOGKym5RAI8M0BlOMFgB_zgIHNqZhKXysy785Sq8CfWz5tOdZEk0ebwC4wM1PMGSmX4ccbQL_hakz_TTje8qqX3ZYalZ01gRU97xVWnR2bYSexrKzb4ZTjH4tWe2yQPniamXQYeCnNOR0ePKHWZybt2ogB9dxJpfuObB8ktH5CCRCVEu85oHLdCaOVnICYqQg4oR3iCQd9dxSGvhDDCI5ttoVy60_WaWZp5LZGfytRA0Zw_Qaaglm2sJHYgdpdMYiC9iLZiEau9HwOOZn7prFT56-aALcKXaLfX0dtDy8TH7b1r0IS55zNqoa9N9mtKLMVoG_1-YFoWmoYAHC84oaaG4ijPCNsRxomB3DyqqNNXJeIr0nHgiuTrokjunnqTHIG4VQFOZYLCbuN9D21PRU7UnWmx66maUoaBguoEjTmnwiYLqP6XVIC3RNGRE2vET-C4q76TEm4FH_D2vG2zeqYz1fN7CLK7IvoBA38twN0hAvYE-Tmf-1YBJuof15jv7B7nVSH2SrL8BRJtiDfyiXHDEqWpU2oB17tyJ6Hy67PZaunAPVoT9DPitOv9tJbiyooJB3rCfhxFf_YvyyTnVBYyl3bSxzDwRAqdrdfg9yoizTnQNzcWmnQ5pO53j7viHjUcnCvOFpOd2d2gBrpt-_MB0n_ngQIlwFeGdyfAoVyEHnLM_GgRGyQ390-fUMKhKT3lrrIBpd6zPvBnSMuT_GC0?></g></svg>