<svg xmlns="http://www.w3.org/2000/svg" xmlns:xlink="http://www.w3.org/1999/xlink" contentStyleType="text/css" data-diagram-type="DESCRIPTION" height="1193px" preserveAspectRatio="none" style="width:685px;height:1193px;background:#F8FAFC;" version="1.1" viewBox="0 0 685 1193" width="685px" zoomAndPan="magnify"><?plantuml 1.2026.3beta6?><defs/><g><rect fill="#F8FAFC" height="1193" style="stroke:none;stroke-width:1;" width="685" x="0" y="0"/><!--cluster 1B. Authentification, Profil Entreprise & Param?tres (RH)--><g class="cluster" data-qualified-name="1B. Authentification. Profil Entreprise . Param.tres .RH." data-source-line="9" id="ent0003"><rect fill="none" height="1172" rx="2.5" ry="2.5" style="stroke:#181818;stroke-width:1;" width="525.09" x="146.71" y="7"/><text fill="#000000" font-family="Arial" font-size="14" font-weight="700" lengthAdjust="spacing" textLength="452.1357" x="183.1871" y="21.9951">1B. Authentification, Profil Entreprise &amp; Param&#232;tres (RH)</text></g><!--entity UC1_1--><g class="entity" data-qualified-name="1B. Authentification. Profil Entreprise . Param.tres .RH..UC1_1" data-source-line="10" id="ent0004"><ellipse cx="409.2598" cy="1134.004" fill="#F1F1F1" rx="132.6198" ry="28.924" style="stroke:#181818;stroke-width:0.5;"/><text fill="#000000" font-family="Arial" font-size="14" lengthAdjust="spacing" textLength="246.1006" x="286.2095" y="1138.6524">1.1 Se connecter au Dashboard RH</text></g><!--entity UC1_2--><g class="entity" data-qualified-name="1B. Authentification. Profil Entreprise . Param.tres .RH..UC1_2" data-source-line="11" id="ent0005"><ellipse cx="409.2612" cy="1028.0042" fill="#F1F1F1" rx="174.5712" ry="37.3142" style="stroke:#181818;stroke-width:0.5;"/><text fill="#000000" font-family="Arial" font-size="14" lengthAdjust="spacing" textLength="333.3271" x="242.5976" y="1032.6527">1.2 R&#233;initialiser le mot de passe administrateur</text></g><!--entity UC1_3--><g class="entity" data-qualified-name="1B. Authentification. Profil Entreprise . Param.tres .RH..UC1_3" data-source-line="12" id="ent0006"><ellipse cx="409.2583" cy="932.0037" fill="#F1F1F1" rx="82.4183" ry="18.8837" style="stroke:#181818;stroke-width:0.5;"/><text fill="#000000" font-family="Arial" font-size="14" lengthAdjust="spacing" textLength="136.3428" x="341.0869" y="936.6521">1.3 Se d&#233;connecter</text></g><!--entity UC1_4--><g class="entity" data-qualified-name="1B. Authentification. Profil Entreprise . Param.tres .RH..UC1_4" data-source-line="14" id="ent0007"><ellipse cx="409.2648" cy="826.001" fill="#F1F1F1" rx="224.2048" ry="47.241" style="stroke:#181818;stroke-width:0.5;"/><text fill="#000000" font-family="Arial" font-size="14" lengthAdjust="spacing" textLength="434.8408" x="191.8444" y="830.6494">1.4 Configurer le profil entreprise (Logo, Description, Secteur)</text></g><!--entity UC1_5--><g class="entity" data-qualified-name="1B. Authentification. Profil Entreprise . Param.tres .RH..UC1_5" data-source-line="15" id="ent0008"><ellipse cx="409.256" cy="695.9992" fill="#F1F1F1" rx="203.096" ry="43.0192" style="stroke:#181818;stroke-width:0.5;"/><text fill="#000000" font-family="Arial" font-size="14" lengthAdjust="spacing" textLength="391.8086" x="213.3517" y="700.6476">1.5 Param&#233;trer l'&#233;quipe (Inviter et g&#233;rer collaborateurs)</text></g><!--entity UC1_6--><g class="entity" data-qualified-name="1B. Authentification. Profil Entreprise . Param.tres .RH..UC1_6" data-source-line="16" id="ent0009"><ellipse cx="409.2621" cy="574.0004" fill="#F1F1F1" rx="183.8521" ry="39.1704" style="stroke:#181818;stroke-width:0.5;"/><text fill="#000000" font-family="Arial" font-size="14" lengthAdjust="spacing" textLength="352.4063" x="233.0589" y="578.6488">1.6 G&#233;rer les droits d'acc&#232;s (R&#244;les et permissions)</text></g><!--entity UC1_7--><g class="entity" data-qualified-name="1B. Authentification. Profil Entreprise . Param.tres .RH..UC1_7" data-source-line="17" id="ent0010"><ellipse cx="409.2574" cy="448.9995" fill="#F1F1F1" rx="216.1474" ry="45.6295" style="stroke:#181818;stroke-width:0.5;"/><text fill="#000000" font-family="Arial" font-size="14" lengthAdjust="spacing" textLength="418.4346" x="200.0401" y="453.6479">1.7 Configurer l'int&#233;gration de marque (Marque Employeur)</text></g><!--entity UC1_8--><g class="entity" data-qualified-name="1B. Authentification. Profil Entreprise . Param.tres .RH..UC1_8" data-source-line="19" id="ent0011"><ellipse cx="409.2648" cy="331.003" fill="#F1F1F1" rx="151.4648" ry="32.693" style="stroke:#181818;stroke-width:0.5;"/><text fill="#000000" font-family="Arial" font-size="14" lengthAdjust="spacing" textLength="285.5303" x="266.4997" y="335.6514">1.8 Modifier son mot de passe personnel</text></g><!--entity UC1_9--><g class="entity" data-qualified-name="1B. Authentification. Profil Entreprise . Param.tres .RH..UC1_9" data-source-line="20" id="ent0012"><ellipse cx="409.2623" cy="222.0045" fill="#F1F1F1" rx="168.9723" ry="36.1945" style="stroke:#181818;stroke-width:0.5;"/><text fill="#000000" font-family="Arial" font-size="14" lengthAdjust="spacing" textLength="321.7881" x="248.3683" y="226.6529">1.9 Ajuster ses pr&#233;f&#233;rences de notification RH</text></g><!--entity UC1_10--><g class="entity" data-qualified-name="1B. Authentification. Profil Entreprise . Param.tres .RH..UC1_10" data-source-line="21" id="ent0013"><ellipse cx="409.2643" cy="93.9989" fill="#F1F1F1" rx="246.5443" ry="51.7089" style="stroke:#181818;stroke-width:0.5;"/><text fill="#000000" font-family="Arial" font-size="14" lengthAdjust="spacing" textLength="480.2246" x="169.152" y="98.6473">1.10 Configurer les param&#232;tres globaux (Devise, Langue, Timezone)</text></g><!--entity URH--><g class="entity" data-qualified-name="URH" data-source-line="7" id="ent0002"><ellipse cx="54.3574" cy="605.35" fill="#F1F1F1" rx="8" ry="8" style="stroke:#181818;stroke-width:0.5;"/><path d="M54.3574,613.35 L54.3574,640.35 M41.3574,621.35 L67.3574,621.35 M54.3574,640.35 L41.3574,655.35 M54.3574,640.35 L67.3574,655.35" fill="none" style="stroke:#181818;stroke-width:0.5;"/><text fill="#000000" font-family="Arial" font-size="14" lengthAdjust="spacing" textLength="96.7148" x="6" y="669.8451">Utilisateur RH</text></g><!--link URH to UC1_1--><g class="link" data-entity-1="ent0002" data-entity-2="ent0004" data-link-type="dependency" data-source-line="24" id="lnk14"><path d="M57.04,673.54 C62.14,771.67 80.82,1027.3 138.71,1085 C175.27,1121.43 223.2735,1135.2489 273.3535,1139.6989" fill="none" id="URH-to-UC1_1" style="stroke:#181818;stroke-width:1;"/><polygon fill="#181818" points="279.33,1140.23,270.7194,1135.4491,274.3496,1139.7875,270.0113,1143.4177,279.33,1140.23" style="stroke:#181818;stroke-width:1;"/></g><!--link URH to UC1_2--><g class="link" data-entity-1="ent0002" data-entity-2="ent0005" data-link-type="dependency" data-source-line="25" id="lnk15"><path d="M59.78,673.46 C69.66,752.62 96.08,929.82 138.71,971 C165.46,996.83 195.0039,1010.796 231.2839,1019.726" fill="none" id="URH-to-UC1_2" style="stroke:#181818;stroke-width:1;"/><polygon fill="#181818" points="237.11,1021.16,229.3269,1015.1249,232.2549,1019.965,227.4148,1022.893,237.11,1021.16" style="stroke:#181818;stroke-width:1;"/></g><!--link URH to UC1_3--><g class="link" data-entity-1="ent0002" data-entity-2="ent0006" data-link-type="dependency" data-source-line="26" id="lnk16"><path d="M55.81,673.36 C58.73,730.65 73.25,837.74 138.71,893 C193.01,938.82 270.4292,944.6214 330.0792,941.3214" fill="none" id="URH-to-UC1_3" style="stroke:#181818;stroke-width:1;"/><polygon fill="#181818" points="336.07,940.99,326.8628,937.4933,331.0776,941.2662,327.3047,945.481,336.07,940.99" style="stroke:#181818;stroke-width:1;"/></g><!--link URH to UC1_4--><g class="link" data-entity-1="ent0002" data-entity-2="ent0007" data-link-type="dependency" data-source-line="28" id="lnk17"><path d="M71.84,673.42 C85.73,701.26 108.23,737.64 138.71,759 C163.99,776.71 187.7553,787.9319 217.7653,797.5319" fill="none" id="URH-to-UC1_4" style="stroke:#181818;stroke-width:1;"/><polygon fill="#181818" points="223.48,799.36,216.1267,792.808,218.7177,797.8366,213.6892,800.4277,223.48,799.36" style="stroke:#181818;stroke-width:1;"/></g><!--link URH to UC1_5--><g class="link" data-entity-1="ent0002" data-entity-2="ent0008" data-link-type="dependency" data-source-line="29" id="lnk18"><path d="M102.95,643.23 C141.14,649.83 191.1277,658.468 244.6977,667.728" fill="none" id="URH-to-UC1_5" style="stroke:#181818;stroke-width:1;"/><polygon fill="#181818" points="250.61,668.75,242.4228,663.2755,245.6831,667.8983,241.0602,671.1586,250.61,668.75" style="stroke:#181818;stroke-width:1;"/></g><!--link URH to UC1_6--><g class="link" data-entity-1="ent0002" data-entity-2="ent0009" data-link-type="dependency" data-source-line="30" id="lnk19"><path d="M102.95,626.77 C144.62,619.57 201.4677,609.7419 259.2677,599.7519" fill="none" id="URH-to-UC1_6" style="stroke:#181818;stroke-width:1;"/><polygon fill="#181818" points="265.18,598.73,255.6302,596.3212,260.253,599.5816,256.9927,604.2044,265.18,598.73" style="stroke:#181818;stroke-width:1;"/></g><!--link URH to UC1_7--><g class="link" data-entity-1="ent0002" data-entity-2="ent0010" data-link-type="dependency" data-source-line="31" id="lnk20"><path d="M72.86,596.37 C86.94,569.6 109.23,535.25 138.71,515 C165.22,496.79 190.4908,485.3396 221.8508,475.7796" fill="none" id="URH-to-UC1_7" style="stroke:#181818;stroke-width:1;"/><polygon fill="#181818" points="227.59,474.03,217.8147,472.8282,222.8073,475.488,220.1475,480.4805,227.59,474.03" style="stroke:#181818;stroke-width:1;"/></g><!--link URH to UC1_8--><g class="link" data-entity-1="ent0002" data-entity-2="ent0011" data-link-type="dependency" data-source-line="33" id="lnk21"><path d="M56.53,596.5 C60.42,540.66 76.23,437.91 138.71,383 C171.38,354.29 209.0943,340.4421 251.7143,333.2221" fill="none" id="URH-to-UC1_8" style="stroke:#181818;stroke-width:1;"/><polygon fill="#181818" points="257.63,332.22,248.0883,329.7794,252.7002,333.0551,249.4245,337.667,257.63,332.22" style="stroke:#181818;stroke-width:1;"/></g><!--link URH to UC1_9--><g class="link" data-entity-1="ent0002" data-entity-2="ent0012" data-link-type="dependency" data-source-line="34" id="lnk22"><path d="M59.17,596.36 C68.16,513.42 93.39,322.23 138.71,278 C166.42,250.96 197.7291,236.7591 235.5891,228.1591" fill="none" id="URH-to-UC1_9" style="stroke:#181818;stroke-width:1;"/><polygon fill="#181818" points="241.44,226.83,231.7775,224.923,236.5642,227.9375,233.5496,232.7242,241.44,226.83" style="stroke:#181818;stroke-width:1;"/></g><!--link URH to UC1_10--><g class="link" data-entity-1="ent0002" data-entity-2="ent0013" data-link-type="dependency" data-source-line="35" id="lnk23"><path d="M57.01,596.6 C62.1,496.13 80.89,228.97 138.71,166 C156.16,147 172.5332,135.2403 196.2032,124.6503" fill="none" id="URH-to-UC1_10" style="stroke:#181818;stroke-width:1;"/><polygon fill="#181818" points="201.68,122.2,191.8312,122.2243,197.116,124.242,195.0983,129.5268,201.68,122.2" style="stroke:#181818;stroke-width:1;"/></g><?plantuml-src PPFDRjim3CVlVWeY0vOKI8iapUTbG9Oqou1sADBrF2Ysx6YH9PUIYdN3tgU-xmtyOgFYmh6saq29_95_aZ97eGg6B8SzYuyPQgUIbPOQuTrclbbkLf5fF1AUCYVjHYlxXUKSbYYORBqhdN332nWFMfV8rD5VJWUHvAa5gm55Th2G2EIn5Lf54Oij9UmyMY65OPOxXDss0yp0usuRHTwFgKnow0m_Ni7IsGDNLgGYPZw-3_UeKo7XHbda1Gh3uJtS--pLAzqOwEss5ntu5G4umsDcFEXg20ySOgqKqJa2Sx1cvh3N39Cc-shuRHX6ZM1NbK89Iz8f4G9LbMjImw5WXdnOajEpiNZIqM168URQ9q-giidVE5wJO-WxXfLMgSWSrkcAMYq_g-tTwaptOSrDZAAeU_BWiGul6l0uf4xUEbJQ4xPRbKzE5CJwh9w5RmYta5MbVuorb6olQqNcJ9o4n2byglqbjJn1BImTNHR7rQiVGVN7tnEru9WBOwZA5ciQicQ1vgvGjYepF8tRjpfd-EIerhlwlCaBgLy2jRF_sZY7EvtGqX3G42KO6fLa_2Ha4pyFWnUm_EwCRuiX4GLMPUgrgjXBvRJvvtLiBy_YdvKRXACaKcjBCwdtpFs0tfe_qrJxS4jBx-ZyAdB-Koj-LZSSHB-ZY3u7N5v-U5lJjZKAhElGTHnOay2Q1jOi39m7rYBCF_WB?></g></svg>