<svg xmlns="http://www.w3.org/2000/svg" xmlns:xlink="http://www.w3.org/1999/xlink" contentStyleType="text/css" data-diagram-type="DESCRIPTION" height="1545px" preserveAspectRatio="none" style="width:1220px;height:1545px;background:#F8FAFC;" version="1.1" viewBox="0 0 1220 1545" width="1220px" zoomAndPan="magnify"><?plantuml 1.2026.3beta6?><defs/><g><rect fill="#F8FAFC" height="1545" style="stroke:none;stroke-width:1;" width="1220" x="0" y="0"/><!--cluster 3. Pipeline de Candidatures--><g class="cluster" data-qualified-name="3. Pipeline de Candidatures" data-source-line="11" id="ent0005"><rect fill="none" height="1288" rx="2.5" ry="2.5" style="stroke:#181818;stroke-width:1;" width="873.79" x="149.71" y="155.15"/><text fill="#000000" font-family="Arial" font-size="14" font-weight="700" lengthAdjust="spacing" textLength="218.2031" x="477.5034" y="170.1451">3. Pipeline de Candidatures</text></g><!--entity UC3_1--><g class="entity" data-qualified-name="3. Pipeline de Candidatures.UC3_1" data-source-line="12" id="ent0006"><ellipse cx="855.8116" cy="1361.1483" fill="#F1F1F1" rx="151.6916" ry="32.7383" style="stroke:#181818;stroke-width:0.5;"/><text fill="#000000" font-family="Arial" font-size="14" lengthAdjust="spacing" textLength="286.002" x="712.8107" y="1365.7968">3.1 Postuler &#224; l'offre (CV / Profil en ligne)</text></g><!--entity UC3_2--><g class="entity" data-qualified-name="3. Pipeline de Candidatures.UC3_2" data-source-line="13" id="ent0007"><ellipse cx="373.4168" cy="1262.1474" fill="#F1F1F1" rx="175.7368" ry="37.5474" style="stroke:#181818;stroke-width:0.5;"/><text fill="#000000" font-family="Arial" font-size="14" lengthAdjust="spacing" textLength="335.7266" x="205.5535" y="1266.7958">3.2 Ajouter une lettre de motivation (Optionnel)</text></g><!--entity UC3_3--><g class="entity" data-qualified-name="3. Pipeline de Candidatures.UC3_3" data-source-line="14" id="ent0008"><ellipse cx="373.4229" cy="1383.1506" fill="#F1F1F1" rx="207.7029" ry="43.9406" style="stroke:#181818;stroke-width:0.5;"/><text fill="#000000" font-family="Arial" font-size="14" lengthAdjust="spacing" textLength="401.2148" x="172.8154" y="1387.799">3.3 Suivre l'&#233;tat de sa candidature (En attente, Refus&#233;...)</text></g><!--entity UC3_4--><g class="entity" data-qualified-name="3. Pipeline de Candidatures.UC3_4" data-source-line="15" id="ent0009"><ellipse cx="373.4175" cy="1147.1495" fill="#F1F1F1" rx="175.5475" ry="37.5095" style="stroke:#181818;stroke-width:0.5;"/><text fill="#000000" font-family="Arial" font-size="14" lengthAdjust="spacing" textLength="335.3369" x="205.749" y="1151.7979">3.4 Annuler ou retirer une candidature en cours</text></g><!--entity UC3_5--><g class="entity" data-qualified-name="3. Pipeline de Candidatures.UC3_5" data-source-line="17" id="ent0010"><ellipse cx="373.4207" cy="520.1541" fill="#F1F1F1" rx="151.5207" ry="32.7041" style="stroke:#181818;stroke-width:0.5;"/><text fill="#000000" font-family="Arial" font-size="14" lengthAdjust="spacing" textLength="285.6465" x="230.5975" y="524.8026">3.5 Voir candidatures de l'offre (Kanban)</text></g><!--entity UC3_6--><g class="entity" data-qualified-name="3. Pipeline de Candidatures.UC3_6" data-source-line="18" id="ent0011"><ellipse cx="373.4158" cy="631.1472" fill="#F1F1F1" rx="181.1358" ry="38.6272" style="stroke:#181818;stroke-width:0.5;"/><text fill="#000000" font-family="Arial" font-size="14" lengthAdjust="spacing" textLength="346.8281" x="200.0017" y="635.7956">3.6 Changer statut candidature (Glisser-D&#233;poser)</text></g><!--entity UC3_7--><g class="entity" data-qualified-name="3. Pipeline de Candidatures.UC3_7" data-source-line="19" id="ent0012"><ellipse cx="373.4187" cy="741.1517" fill="#F1F1F1" rx="147.3087" ry="31.8617" style="stroke:#181818;stroke-width:0.5;"/><text fill="#000000" font-family="Arial" font-size="14" lengthAdjust="spacing" textLength="276.876" x="234.9807" y="745.8002">3.7 Consulter le profil 360&#176; du candidat</text></g><!--entity UC3_8--><g class="entity" data-qualified-name="3. Pipeline de Candidatures.UC3_8" data-source-line="20" id="ent0013"><ellipse cx="373.4191" cy="841.1458" fill="#F1F1F1" rx="129.1791" ry="28.2358" style="stroke:#181818;stroke-width:0.5;"/><text fill="#000000" font-family="Arial" font-size="14" lengthAdjust="spacing" textLength="238.8408" x="253.9987" y="845.7943">3.8 T&#233;l&#233;charger le CV du candidat</text></g><!--entity UC3_9--><g class="entity" data-qualified-name="3. Pipeline de Candidatures.UC3_9" data-source-line="21" id="ent0014"><ellipse cx="373.4169" cy="942.1514" fill="#F1F1F1" rx="149.9569" ry="32.3914" style="stroke:#181818;stroke-width:0.5;"/><text fill="#000000" font-family="Arial" font-size="14" lengthAdjust="spacing" textLength="282.3926" x="232.2206" y="946.7998">3.9 Voir snapshot rapide de candidature</text></g><!--entity UC3_10--><g class="entity" data-qualified-name="3. Pipeline de Candidatures.UC3_10" data-source-line="22" id="ent0015"><ellipse cx="373.4213" cy="1042.1503" fill="#F1F1F1" rx="124.1513" ry="27.2303" style="stroke:#181818;stroke-width:0.5;"/><text fill="#000000" font-family="Arial" font-size="14" lengthAdjust="spacing" textLength="228.1904" x="259.3261" y="1046.7987">3.10 Supprimer une candidature</text></g><!--entity UC3_11--><g class="entity" data-qualified-name="3. Pipeline de Candidatures.UC3_11" data-source-line="23" id="ent0016"><ellipse cx="373.421" cy="219.1502" fill="#F1F1F1" rx="132.701" ry="28.9402" style="stroke:#181818;stroke-width:0.5;"/><text fill="#000000" font-family="Arial" font-size="14" lengthAdjust="spacing" textLength="246.2715" x="250.2852" y="223.7986">3.11 Filtrer candidatures par statut</text></g><!--entity UC3_12--><g class="entity" data-qualified-name="3. Pipeline de Candidatures.UC3_12" data-source-line="24" id="ent0017"><ellipse cx="373.4245" cy="320.1529" fill="#F1F1F1" rx="150.1145" ry="32.4229" style="stroke:#181818;stroke-width:0.5;"/><text fill="#000000" font-family="Arial" font-size="14" lengthAdjust="spacing" textLength="282.7207" x="232.0641" y="324.8013">3.12 R&#233;initialiser une candidature (Test)</text></g><!--entity UC3_13--><g class="entity" data-qualified-name="3. Pipeline de Candidatures.UC3_13" data-source-line="25" id="ent0018"><ellipse cx="855.8147" cy="268.1509" fill="#F1F1F1" rx="122.9547" ry="26.9909" style="stroke:#181818;stroke-width:0.5;"/><text fill="#000000" font-family="Arial" font-size="14" lengthAdjust="spacing" textLength="225.6475" x="742.9909" y="272.7994">3.13 Voir score IA de pertinence</text></g><!--entity UC3_14--><g class="entity" data-qualified-name="3. Pipeline de Candidatures.UC3_14" data-source-line="26" id="ent0019"><ellipse cx="373.4179" cy="420.1476" fill="#F1F1F1" rx="126.6879" ry="27.7376" style="stroke:#181818;stroke-width:0.5;"/><text fill="#000000" font-family="Arial" font-size="14" lengthAdjust="spacing" textLength="233.5703" x="256.6328" y="424.796">3.14 Voir justification textuelle IA</text></g><!--entity URH--><g class="entity" data-qualified-name="URH" data-source-line="7" id="ent0002"><ellipse cx="54.3574" cy="546.5" fill="#F1F1F1" rx="8" ry="8" style="stroke:#181818;stroke-width:0.5;"/><path d="M54.3574,554.5 L54.3574,581.5 M41.3574,562.5 L67.3574,562.5 M54.3574,581.5 L41.3574,596.5 M54.3574,581.5 L67.3574,596.5" fill="none" style="stroke:#181818;stroke-width:0.5;"/><text fill="#000000" font-family="Arial" font-size="14" lengthAdjust="spacing" textLength="96.7148" x="6" y="610.9951">Utilisateur RH</text></g><!--entity C--><g class="entity" data-qualified-name="C" data-source-line="8" id="ent0003"><ellipse cx="54.3595" cy="1311.5" fill="#F1F1F1" rx="8" ry="8" style="stroke:#181818;stroke-width:0.5;"/><path d="M54.3595,1319.5 L54.3595,1346.5 M41.3595,1327.5 L67.3595,1327.5 M54.3595,1346.5 L41.3595,1361.5 M54.3595,1346.5 L67.3595,1361.5" fill="none" style="stroke:#181818;stroke-width:0.5;"/><text fill="#000000" font-family="Arial" font-size="14" lengthAdjust="spacing" textLength="62.959" x="22.88" y="1375.9951">Candidat</text></g><!--entity IA--><g class="entity" data-qualified-name="IA" data-source-line="9" id="ent0004"><ellipse cx="1170.1685" cy="246.6569" fill="#F1F1F1" rx="8" ry="8" style="stroke:#181818;stroke-width:0.5;"/><path d="M1170.1685,254.6569 L1170.1685,281.6569 M1157.1685,262.6569 L1183.1685,262.6569 M1170.1685,281.6569 L1157.1685,296.6569 M1170.1685,281.6569 L1183.1685,296.6569" fill="none" style="stroke:#181818;stroke-width:0.5;"/><text fill="#000000" font-family="Arial" font-size="14" lengthAdjust="spacing" textLength="67.5322" x="1136.4023" y="311.152">Moteur IA</text><text fill="#000000" font-family="Arial" font-size="14" font-style="italic" lengthAdjust="spacing" textLength="69.3369" x="1135.5" y="234.8551">&#171;System&#187;</text></g><!--link C to UC3_1--><g class="link" data-entity-1="ent0003" data-entity-2="ent0006" data-link-type="dependency" data-source-line="29" id="lnk20"><path d="M75.11,1379.79 C89.84,1404.03 112.45,1433.25 141.71,1447.15 C318.11,1530.97 388.09,1476.77 581.12,1447.15 C651.52,1436.35 723.0542,1412.8925 777.4442,1392.4325" fill="none" id="C-to-UC3_1" style="stroke:#181818;stroke-width:1;"/><polygon fill="#181818" points="783.06,1390.32,773.2279,1389.7449,778.3802,1392.0804,776.0446,1397.2326,783.06,1390.32" style="stroke:#181818;stroke-width:1;"/></g><!--link C to UC3_2--><g class="link" data-entity-1="ent0003" data-entity-2="ent0007" data-link-type="dependency" data-source-line="30" id="lnk21"><path d="M86.12,1333.26 C102.6,1329.04 123.26,1323.78 141.71,1319.15 C179.13,1309.77 214.1647,1301.0673 250.9647,1291.9873" fill="none" id="C-to-UC3_2" style="stroke:#181818;stroke-width:1;"/><polygon fill="#181818" points="256.79,1290.55,247.0938,1288.8225,251.9356,1291.7478,249.0103,1296.5895,256.79,1290.55" style="stroke:#181818;stroke-width:1;"/></g><!--link C to UC3_3--><g class="link" data-entity-1="ent0003" data-entity-2="ent0008" data-link-type="dependency" data-source-line="31" id="lnk22"><path d="M86.34,1345.26 C113.06,1348.8 148.0319,1353.4325 190.6319,1359.0725" fill="none" id="C-to-UC3_3" style="stroke:#181818;stroke-width:1;"/><polygon fill="#181818" points="196.58,1359.86,188.1829,1354.7134,191.6233,1359.2038,187.1329,1362.6442,196.58,1359.86" style="stroke:#181818;stroke-width:1;"/></g><!--link C to UC3_4--><g class="link" data-entity-1="ent0003" data-entity-2="ent0009" data-link-type="dependency" data-source-line="32" id="lnk23"><path d="M70.06,1302.52 C83.91,1271.35 107.63,1228.76 141.71,1204.15 C165.46,1187.01 188.0354,1176.6883 216.5654,1168.2683" fill="none" id="C-to-UC3_4" style="stroke:#181818;stroke-width:1;"/><polygon fill="#181818" points="222.32,1166.57,212.5558,1165.2811,217.5245,1167.9853,214.8203,1172.9539,222.32,1166.57" style="stroke:#181818;stroke-width:1;"/></g><!--link UC3_2 to UC3_1--><g class="link" data-entity-1="ent0007" data-entity-2="ent0006" data-link-type="dependency" data-source-line="34" id="lnk24"><path d="M501.26,1288.29 C577.01,1303.9 666.4035,1322.3291 738.9535,1337.2791" fill="none" id="UC3_2-to-UC3_1" style="stroke:#181818;stroke-width:1;stroke-dasharray:7,7;"/><polygon fill="#181818" points="744.83,1338.49,736.8225,1332.7559,739.9329,1337.4809,735.2079,1340.5913,744.83,1338.49" style="stroke:#181818;stroke-width:1;"/><text fill="#000000" font-family="Arial" font-size="13" lengthAdjust="spacing" textLength="61.1851" x="612.12" y="1308.2169">&#171;extend&#187;</text></g><!--link URH to UC3_5--><g class="link" data-entity-1="ent0002" data-entity-2="ent0010" data-link-type="dependency" data-source-line="36" id="lnk25"><path d="M103.17,567.71 C143.3,560.62 196.4415,551.2339 249.0215,541.9439" fill="none" id="URH-to-UC3_5" style="stroke:#181818;stroke-width:1;"/><polygon fill="#181818" points="254.93,540.9,245.3713,538.5269,250.0063,541.7699,246.7632,546.4049,254.93,540.9" style="stroke:#181818;stroke-width:1;"/></g><!--link URH to UC3_6--><g class="link" data-entity-1="ent0002" data-entity-2="ent0011" data-link-type="dependency" data-source-line="37" id="lnk26"><path d="M103.17,584.45 C137.51,590.4 179.7782,597.7348 225.9082,605.7348" fill="none" id="URH-to-UC3_6" style="stroke:#181818;stroke-width:1;"/><polygon fill="#181818" points="231.82,606.76,223.6359,601.281,226.8935,605.9056,222.2689,609.1633,231.82,606.76" style="stroke:#181818;stroke-width:1;"/></g><!--link URH to UC3_7--><g class="link" data-entity-1="ent0002" data-entity-2="ent0012" data-link-type="dependency" data-source-line="38" id="lnk27"><path d="M75.1,614.7 C90.03,639.98 112.87,671.66 141.71,690.15 C170.55,708.64 199.268,719.1655 232.758,726.7455" fill="none" id="URH-to-UC3_7" style="stroke:#181818;stroke-width:1;"/><polygon fill="#181818" points="238.61,728.07,230.715,722.1819,233.7334,726.9662,228.949,729.9845,238.61,728.07" style="stroke:#181818;stroke-width:1;"/></g><!--link URH to UC3_8--><g class="link" data-entity-1="ent0002" data-entity-2="ent0013" data-link-type="dependency" data-source-line="39" id="lnk28"><path d="M59.63,614.72 C67.21,663.84 87.69,747.78 141.71,793.15 C170.54,817.36 202.5383,829.2886 239.2683,836.0186" fill="none" id="URH-to-UC3_8" style="stroke:#181818;stroke-width:1;"/><polygon fill="#181818" points="245.17,837.1,237.0383,831.5434,240.2519,836.1989,235.5965,839.4124,245.17,837.1" style="stroke:#181818;stroke-width:1;"/></g><!--link URH to UC3_9--><g class="link" data-entity-1="ent0002" data-entity-2="ent0014" data-link-type="dependency" data-source-line="40" id="lnk29"><path d="M60.97,614.52 C72.69,689.43 102.02,851.14 141.71,889.15 C165.31,911.75 190.6862,923.9368 222.4762,932.0468" fill="none" id="URH-to-UC3_9" style="stroke:#181818;stroke-width:1;"/><polygon fill="#181818" points="228.29,933.53,220.5581,927.4294,223.4452,932.294,218.5805,935.1811,228.29,933.53" style="stroke:#181818;stroke-width:1;"/></g><!--link URH to UC3_10--><g class="link" data-entity-1="ent0002" data-entity-2="ent0015" data-link-type="dependency" data-source-line="41" id="lnk30"><path d="M58.01,614.61 C65.24,707.56 88.37,940.74 141.71,994.15 C169.9,1022.38 204.153,1035.1372 243.103,1041.2672" fill="none" id="URH-to-UC3_10" style="stroke:#181818;stroke-width:1;"/><polygon fill="#181818" points="249.03,1042.2,240.7613,1036.8494,244.0908,1041.4227,239.5176,1044.7522,249.03,1042.2" style="stroke:#181818;stroke-width:1;"/></g><!--link URH to UC3_11--><g class="link" data-entity-1="ent0002" data-entity-2="ent0016" data-link-type="dependency" data-source-line="42" id="lnk31"><path d="M61.09,537.76 C72.94,463.7 102.32,305.1 141.71,268.15 C168.59,242.94 199.199,230.5383 235.219,223.5783" fill="none" id="URH-to-UC3_11" style="stroke:#181818;stroke-width:1;"/><polygon fill="#181818" points="241.11,222.44,231.5146,220.2201,236.2008,223.3886,233.0323,228.0748,241.11,222.44" style="stroke:#181818;stroke-width:1;"/></g><!--link URH to UC3_12--><g class="link" data-entity-1="ent0002" data-entity-2="ent0017" data-link-type="dependency" data-source-line="43" id="lnk32"><path d="M60.91,537.56 C69.67,491.18 91.25,414.32 141.71,372.15 C166.76,351.22 192.6764,339.724 224.5364,331.824" fill="none" id="URH-to-UC3_12" style="stroke:#181818;stroke-width:1;"/><polygon fill="#181818" points="230.36,330.38,220.6619,328.6636,225.507,331.5834,222.5872,336.4285,230.36,330.38" style="stroke:#181818;stroke-width:1;"/></g><!--link URH to UC3_13--><g class="link" data-entity-1="ent0002" data-entity-2="ent0018" data-link-type="dependency" data-source-line="44" id="lnk33"><path d="M57.57,537.75 C63.77,445.63 84.73,216.29 141.71,170.15 C344.46,6 685.4779,171.7831 806.3879,239.6531" fill="none" id="URH-to-UC3_13" style="stroke:#181818;stroke-width:1;"/><polygon fill="#181818" points="811.62,242.59,805.7298,234.6966,807.2599,240.1426,801.814,241.6727,811.62,242.59" style="stroke:#181818;stroke-width:1;"/></g><!--link URH to UC3_14--><g class="link" data-entity-1="ent0002" data-entity-2="ent0019" data-link-type="dependency" data-source-line="45" id="lnk34"><path d="M76.39,537.55 C91.45,513.59 113.94,484.21 141.71,467.15 C174.63,446.93 208.7741,436.2987 246.2041,429.5887" fill="none" id="URH-to-UC3_14" style="stroke:#181818;stroke-width:1;"/><polygon fill="#181818" points="252.11,428.53,242.5454,426.1809,247.1885,429.4123,243.957,434.0553,252.11,428.53" style="stroke:#181818;stroke-width:1;"/></g><!--link UC3_13 to IA--><g class="link" data-entity-1="ent0018" data-entity-2="ent0004" data-link-type="dependency" data-source-line="47" id="lnk35"><path d="M978.92,268.15 C1034.7,268.15 1090.58,268.15 1128.18,268.15" fill="none" id="UC3_13-to-IA" style="stroke:#181818;stroke-width:1;"/><polygon fill="#181818" points="1134.18,268.15,1125.18,264.15,1129.18,268.15,1125.18,272.15,1134.18,268.15" style="stroke:#181818;stroke-width:1;"/><text fill="#000000" font-family="Arial" font-size="13" lengthAdjust="spacing" textLength="63.0068" x="1040.5" y="264.2169">&#171;include&#187;</text></g><!--link UC3_14 to UC3_13--><g class="link" data-entity-1="ent0019" data-entity-2="ent0018" data-link-type="dependency" data-source-line="48" id="lnk36"><path d="M467.73,401.29 C503.48,393.33 544.47,383.32 581.12,372.15 C657.46,348.9 737.5665,317.3455 792.3865,294.6455" fill="none" id="UC3_14-to-UC3_13" style="stroke:#181818;stroke-width:1;stroke-dasharray:7,7;"/><polygon fill="#181818" points="797.93,292.35,788.0844,292.0975,793.3104,294.2629,791.145,299.4889,797.93,292.35" style="stroke:#181818;stroke-width:1;"/><text fill="#000000" font-family="Arial" font-size="13" lengthAdjust="spacing" textLength="61.1851" x="612.12" y="338.2169">&#171;extend&#187;</text></g><?plantuml-src RLJDRjD04BxxAKRXq23HaCHfcgAgKcG8hH1GfJzNjBKdoRQRNMjtjW8XteLhRZm3UJ76Tc9xGq_UcPtls_dcn-v9wbnOiOO7aJujhV4wIumo5bxD9hFfB8bS7P7XGdX5CwFfYrWZJAqKgdMlJOOESnZrMquhz5FX7FSZXGi2Cc3bSaMGIOifIQEZIAJ43tRkI2hf1A6tCB_iW71mDx_StoP2Pp8JLFgJlVUpASElfgNxQWhdvpS_7E7wuYAAYWU4NYg4Jjo3QvcZaXfP1-p9l4NNWPyHW7UO2bT63k3QEF8ABMn_WpeoYuL5w2Rty1QkhLb81QX1oQN6rrMMIVnj478COVfeF365vnSL4jdouRKX-ImAsT3zcXTVZQfX6OOiCTnu-Sn8TRJTaA22mGb8c-oX-q63849D-0RckF1kk-drUWrb75AEOAfrgSrui4ZSXIh7DYdBIusthYOPHI7B2TmRQTiOL-HMr-gJq0z2DqcSXF0n92jk3B_iM9MdKD57dWA7zlZzTfCRFZGquv3c51AZ7Oya4t6JywetyRZ_zmzalYQjuQSXV0AtsutQRjALiCkAWdly4d0I0iygzKwBtAqCyOpdCYlRsz9HWyyEfglFJSrpAzV_5xwPflu1Q00pgQZeLL1pth5T2HlemIGEXZ3VRgIMnDigtGlTxjwYezOa7mpX8Dx9JGq7yugnpXmjyIhfj9NomQ0DHXNiqJkI2vbMGq_udJmgXVkLBQ6Zw5SK9N1yVB7RfUOyR9tZrfadiho6Ncy7WdUy_4oFEYkMdtyTTV19O8q3wpIm9e5r5bZSbC0SXEOmDEFGtENBnInSNCKYMwbJvJFaTAkOHamSgFa7?></g></svg>