<svg xmlns="http://www.w3.org/2000/svg" xmlns:xlink="http://www.w3.org/1999/xlink" contentStyleType="text/css" data-diagram-type="DESCRIPTION" height="1025px" preserveAspectRatio="none" style="width:753px;height:1025px;background:#F8FAFC;" version="1.1" viewBox="0 0 753 1025" width="753px" zoomAndPan="magnify"><?plantuml 1.2026.3beta6?><defs/><g><rect fill="#F8FAFC" height="1025" style="stroke:none;stroke-width:1;" width="753" x="0" y="0"/><!--cluster 2. Gestion & Recherche d'Offres--><g class="cluster" data-qualified-name="2. Gestion . Recherche d.Offres" data-source-line="11" id="ent0005"><rect fill="none" height="1004" rx="2.5" ry="2.5" style="stroke:#181818;stroke-width:1;" width="406.21" x="149.71" y="7"/><text fill="#000000" font-family="Arial" font-size="14" font-weight="700" lengthAdjust="spacing" textLength="252.9844" x="226.3228" y="21.9951">2. Gestion &amp; Recherche d'Offres</text></g><!--entity UC2_1--><g class="entity" data-qualified-name="2. Gestion . Recherche d.Offres.UC2_1" data-source-line="12" id="ent0006"><ellipse cx="352.822" cy="71.0044" fill="#F1F1F1" rx="134.422" ry="29.2844" style="stroke:#181818;stroke-width:0.5;"/><text fill="#000000" font-family="Arial" font-size="14" lengthAdjust="spacing" textLength="249.8945" x="227.8747" y="75.6528">2.1 Cr&#233;er / Configurer une offre (IA)</text></g><!--entity UC2_2--><g class="entity" data-qualified-name="2. Gestion . Recherche d.Offres.UC2_2" data-source-line="13" id="ent0007"><ellipse cx="352.8221" cy="168.9984" fill="#F1F1F1" rx="131.3421" ry="28.6684" style="stroke:#181818;stroke-width:0.5;"/><text fill="#000000" font-family="Arial" font-size="14" lengthAdjust="spacing" textLength="243.4072" x="231.1185" y="173.6469">2.2 Publier l'offre (Portail, Externe)</text></g><!--entity UC2_3--><g class="entity" data-qualified-name="2. Gestion . Recherche d.Offres.UC2_3" data-source-line="14" id="ent0008"><ellipse cx="352.822" cy="266.9984" fill="#F1F1F1" rx="135.742" ry="29.5484" style="stroke:#181818;stroke-width:0.5;"/><text fill="#000000" font-family="Arial" font-size="14" lengthAdjust="spacing" textLength="252.6699" x="226.4871" y="271.6468">2.3 Lister et g&#233;rer ses offres actives</text></g><!--entity UC2_4--><g class="entity" data-qualified-name="2. Gestion . Recherche d.Offres.UC2_4" data-source-line="15" id="ent0009"><ellipse cx="352.8205" cy="364.9961" fill="#F1F1F1" rx="130.9305" ry="28.5861" style="stroke:#181818;stroke-width:0.5;"/><text fill="#000000" font-family="Arial" font-size="14" lengthAdjust="spacing" textLength="242.5391" x="231.551" y="369.6445">2.4 G&#233;rer collaborateurs sur l'offre</text></g><!--entity UC2_5--><g class="entity" data-qualified-name="2. Gestion . Recherche d.Offres.UC2_5" data-source-line="16" id="ent0010"><ellipse cx="352.8223" cy="458.0005" fill="#F1F1F1" rx="111.2023" ry="24.6405" style="stroke:#181818;stroke-width:0.5;"/><text fill="#000000" font-family="Arial" font-size="14" lengthAdjust="spacing" textLength="200.4775" x="252.5835" y="462.6489">2.5 Cl&#244;turer / Archiver l'offre</text></g><!--entity UC2_6--><g class="entity" data-qualified-name="2. Gestion . Recherche d.Offres.UC2_6" data-source-line="17" id="ent0011"><ellipse cx="352.8213" cy="547.9983" fill="#F1F1F1" rx="115.5413" ry="25.5083" style="stroke:#181818;stroke-width:0.5;"/><text fill="#000000" font-family="Arial" font-size="14" lengthAdjust="spacing" textLength="209.8154" x="247.9136" y="552.6467">2.6 Cloner une offre existante</text></g><!--entity UC2_7--><g class="entity" data-qualified-name="2. Gestion . Recherche d.Offres.UC2_7" data-source-line="19" id="ent0012"><ellipse cx="352.8206" cy="647.9981" fill="#F1F1F1" rx="160.2406" ry="34.4481" style="stroke:#181818;stroke-width:0.5;"/><text fill="#000000" font-family="Arial" font-size="14" lengthAdjust="spacing" textLength="303.7412" x="200.95" y="652.6466">2.7 Rechercher des offres d'emploi (Filtres)</text></g><!--entity UC2_8--><g class="entity" data-qualified-name="2. Gestion . Recherche d.Offres.UC2_8" data-source-line="20" id="ent0013"><ellipse cx="352.8153" cy="750.9991" fill="#F1F1F1" rx="131.3453" ry="28.6691" style="stroke:#181818;stroke-width:0.5;"/><text fill="#000000" font-family="Arial" font-size="14" lengthAdjust="spacing" textLength="243.4141" x="231.1083" y="755.6475">2.8 Voir le d&#233;tail complet de l'offre</text></g><!--entity UC2_9--><g class="entity" data-qualified-name="2. Gestion . Recherche d.Offres.UC2_9" data-source-line="21" id="ent0014"><ellipse cx="352.8238" cy="859.0008" fill="#F1F1F1" rx="187.1038" ry="39.8208" style="stroke:#181818;stroke-width:0.5;"/><text fill="#000000" font-family="Arial" font-size="14" lengthAdjust="spacing" textLength="359.0781" x="173.2847" y="863.6492">2.9 Consulter le score de Match IA (Candidat-Offre)</text></g><!--entity UC2_10--><g class="entity" data-qualified-name="2. Gestion . Recherche d.Offres.UC2_10" data-source-line="22" id="ent0015"><ellipse cx="352.8191" cy="966.9978" fill="#F1F1F1" rx="127.8891" ry="27.9778" style="stroke:#181818;stroke-width:0.5;"/><text fill="#000000" font-family="Arial" font-size="14" lengthAdjust="spacing" textLength="236.1133" x="234.7625" y="971.6463">2.10 Sauvegarder l'offre (Favoris)</text></g><!--entity URH--><g class="entity" data-qualified-name="URH" data-source-line="7" id="ent0002"><ellipse cx="54.3574" cy="286.35" fill="#F1F1F1" rx="8" ry="8" style="stroke:#181818;stroke-width:0.5;"/><path d="M54.3574,294.35 L54.3574,321.35 M41.3574,302.35 L67.3574,302.35 M54.3574,321.35 L41.3574,336.35 M54.3574,321.35 L67.3574,336.35" fill="none" style="stroke:#181818;stroke-width:0.5;"/><text fill="#000000" font-family="Arial" font-size="14" lengthAdjust="spacing" textLength="96.7148" x="6" y="350.8451">Utilisateur RH</text></g><!--entity C--><g class="entity" data-qualified-name="C" data-source-line="8" id="ent0003"><ellipse cx="54.3595" cy="790.35" fill="#F1F1F1" rx="8" ry="8" style="stroke:#181818;stroke-width:0.5;"/><path d="M54.3595,798.35 L54.3595,825.35 M41.3595,806.35 L67.3595,806.35 M54.3595,825.35 L41.3595,840.35 M54.3595,825.35 L67.3595,840.35" fill="none" style="stroke:#181818;stroke-width:0.5;"/><text fill="#000000" font-family="Arial" font-size="14" lengthAdjust="spacing" textLength="62.959" x="22.88" y="854.8451">Candidat</text></g><!--entity IA--><g class="entity" data-qualified-name="IA" data-source-line="9" id="ent0004"><ellipse cx="702.5885" cy="353.4969" fill="#F1F1F1" rx="8" ry="8" style="stroke:#181818;stroke-width:0.5;"/><path d="M702.5885,361.4969 L702.5885,388.4969 M689.5885,369.4969 L715.5885,369.4969 M702.5885,388.4969 L689.5885,403.4969 M702.5885,388.4969 L715.5885,403.4969" fill="none" style="stroke:#181818;stroke-width:0.5;"/><text fill="#000000" font-family="Arial" font-size="14" lengthAdjust="spacing" textLength="67.5322" x="668.8223" y="417.992">Moteur IA</text><text fill="#000000" font-family="Arial" font-size="14" font-style="italic" lengthAdjust="spacing" textLength="69.3369" x="667.92" y="341.6951">&#171;System&#187;</text></g><!--link URH to UC2_1--><g class="link" data-entity-1="ent0002" data-entity-2="ent0006" data-link-type="dependency" data-source-line="25" id="lnk16"><path d="M61.74,277.38 C71.2,232.69 93.35,160.12 141.71,120 C165.43,100.33 189.7617,89.665 219.7817,82.325" fill="none" id="URH-to-UC2_1" style="stroke:#181818;stroke-width:1;"/><polygon fill="#181818" points="225.61,80.9,215.9175,79.152,220.7531,82.0875,217.8176,86.9231,225.61,80.9" style="stroke:#181818;stroke-width:1;"/></g><!--link URH to UC2_2--><g class="link" data-entity-1="ent0002" data-entity-2="ent0007" data-link-type="dependency" data-source-line="26" id="lnk17"><path d="M79.75,277.74 C95.07,256.74 116.66,231.99 141.71,217 C169.89,200.15 197.5831,190.5127 229.5031,183.4127" fill="none" id="URH-to-UC2_2" style="stroke:#181818;stroke-width:1;"/><polygon fill="#181818" points="235.36,182.11,225.7062,180.1595,230.4793,183.1956,227.4432,187.9687,235.36,182.11" style="stroke:#181818;stroke-width:1;"/></g><!--link URH to UC2_3--><g class="link" data-entity-1="ent0002" data-entity-2="ent0008" data-link-type="dependency" data-source-line="27" id="lnk18"><path d="M102.99,308.13 C140.88,301.86 189.4603,293.8384 237.8003,285.8484" fill="none" id="URH-to-UC2_3" style="stroke:#181818;stroke-width:1;"/><polygon fill="#181818" points="243.72,284.87,234.1882,282.3912,238.7869,285.6854,235.4928,290.2841,243.72,284.87" style="stroke:#181818;stroke-width:1;"/></g><!--link URH to UC2_4--><g class="link" data-entity-1="ent0002" data-entity-2="ent0009" data-link-type="dependency" data-source-line="28" id="lnk19"><path d="M102.99,323.87 C141.86,330.3 192.2903,338.6316 241.5403,346.7716" fill="none" id="URH-to-UC2_4" style="stroke:#181818;stroke-width:1;"/><polygon fill="#181818" points="247.46,347.75,239.2327,342.3359,242.5269,346.9347,237.9282,350.2289,247.46,347.75" style="stroke:#181818;stroke-width:1;"/></g><!--link URH to UC2_5--><g class="link" data-entity-1="ent0002" data-entity-2="ent0010" data-link-type="dependency" data-source-line="29" id="lnk20"><path d="M80.09,354.53 C95.38,375.27 116.83,399.5 141.71,414 C173.6,432.57 206.3313,442.3171 241.7413,448.5671" fill="none" id="URH-to-UC2_5" style="stroke:#181818;stroke-width:1;"/><polygon fill="#181818" points="247.65,449.61,239.4823,444.1065,242.7261,448.7409,238.0917,451.9848,247.65,449.61" style="stroke:#181818;stroke-width:1;"/></g><!--link URH to UC2_6--><g class="link" data-entity-1="ent0002" data-entity-2="ent0011" data-link-type="dependency" data-source-line="30" id="lnk21"><path d="M62.5,354.57 C72.54,397.49 95.08,465.7 141.71,503 C169.17,524.96 198.9882,535.7691 233.1682,542.0291" fill="none" id="URH-to-UC2_6" style="stroke:#181818;stroke-width:1;"/><polygon fill="#181818" points="239.07,543.11,230.9379,537.5541,234.1518,542.2092,229.4966,545.4232,239.07,543.11" style="stroke:#181818;stroke-width:1;"/></g><!--link C to UC2_7--><g class="link" data-entity-1="ent0003" data-entity-2="ent0012" data-link-type="dependency" data-source-line="32" id="lnk22"><path d="M74.36,781.55 C89.22,755.35 112.29,721.93 141.71,702 C164.79,686.37 186.3185,676.9449 213.4585,669.0549" fill="none" id="C-to-UC2_7" style="stroke:#181818;stroke-width:1;"/><polygon fill="#181818" points="219.22,667.38,209.4612,666.0514,214.4188,668.7758,211.6944,673.7334,219.22,667.38" style="stroke:#181818;stroke-width:1;"/></g><!--link C to UC2_8--><g class="link" data-entity-1="ent0003" data-entity-2="ent0013" data-link-type="dependency" data-source-line="33" id="lnk23"><path d="M86.11,812.41 C102.59,808.37 123.24,803.36 141.71,799 C180.41,789.88 217.3295,781.391 254.1195,773.021" fill="none" id="C-to-UC2_8" style="stroke:#181818;stroke-width:1;"/><polygon fill="#181818" points="259.97,771.69,250.3069,769.7862,255.0946,772.7992,252.0816,777.5869,259.97,771.69" style="stroke:#181818;stroke-width:1;"/></g><!--link C to UC2_9--><g class="link" data-entity-1="ent0003" data-entity-2="ent0014" data-link-type="dependency" data-source-line="34" id="lnk24"><path d="M86.25,824.06 C112.42,827.51 146.1612,831.9479 186.9312,837.3079" fill="none" id="C-to-UC2_9" style="stroke:#181818;stroke-width:1;"/><polygon fill="#181818" points="192.88,838.09,184.4782,832.951,187.9227,837.4383,183.4354,840.8827,192.88,838.09" style="stroke:#181818;stroke-width:1;"/></g><!--link C to UC2_10--><g class="link" data-entity-1="ent0003" data-entity-2="ent0015" data-link-type="dependency" data-source-line="35" id="lnk25"><path d="M79.75,858.26 C95.07,879.26 116.66,904.01 141.71,919 C170.61,936.29 199.2963,946.0785 231.9463,953.1585" fill="none" id="C-to-UC2_10" style="stroke:#181818;stroke-width:1;"/><polygon fill="#181818" points="237.81,954.43,229.8621,948.6136,232.9236,953.3704,228.1667,956.4319,237.81,954.43" style="stroke:#181818;stroke-width:1;"/></g><!--link UC2_1 to IA--><g class="link" data-entity-1="ent0006" data-entity-2="ent0004" data-link-type="dependency" data-source-line="37" id="lnk26"><path d="M478.14,82.03 C508.45,89.34 539.22,101.13 563.92,120 C632.98,172.77 669.7716,264.7034 687.5316,322.6434" fill="none" id="UC2_1-to-IA" style="stroke:#181818;stroke-width:1;"/><polygon fill="#181818" points="689.29,328.38,690.4768,318.6029,687.8247,323.5995,682.828,320.9474,689.29,328.38" style="stroke:#181818;stroke-width:1;"/><text fill="#000000" font-family="Arial" font-size="13" lengthAdjust="spacing" textLength="63.0068" x="572.92" y="126.0669">&#171;include&#187;</text></g><!--link UC2_9 to IA--><g class="link" data-entity-1="ent0014" data-entity-2="ent0004" data-link-type="dependency" data-source-line="38" id="lnk27"><path d="M506.16,835.8 C527.45,827.27 547.6,815.69 563.92,800 C671.42,696.67 694.7473,514.8396 699.8773,427.7096" fill="none" id="UC2_9-to-IA" style="stroke:#181818;stroke-width:1;"/><polygon fill="#181818" points="700.23,421.72,695.7079,430.4693,699.9361,426.7114,703.6941,430.9395,700.23,421.72" style="stroke:#181818;stroke-width:1;"/><text fill="#000000" font-family="Arial" font-size="13" lengthAdjust="spacing" textLength="63.0068" x="572.92" y="699.0669">&#171;include&#187;</text></g><?plantuml-src RPFRQXin48RlzHI32xKBTUFpeGI3MRg9eMc3GtfRvDLuBInBHjAQXD87ydtVm2_MMVcqQdgnh6Oqtyu_XtLhgRVSyWqiUBREhIcqI8mo5jwbetIQ9inT8WGkUQ5yQhJ_nZS8Kokvgjnh8z3X5dgjYjDolIwTWnPJkFJW3LYPhpm8QJ7pqcZ6UEOfOUtPIoKTzrXOcD_NW3judj-VRnEkXHJS1tzozZwO43wR1lTi2hUtJw_EusOoOQnCm7Mk46gTJt27ham7xs6EsGejFI3gtvTBYwu6lnX0uJ3ZBaIt8R67FLguWSJefSmBIqQX4Km9G6Cs_N1Kc7H-jcEs0u_5GacAL_LJzAEndalr4RwyUBGQhsmdPhlmLP9y2-WXF-pBf0xTCQa3AbhkIhKdk1l3FRWx8fbHYY-C3Rrqu8gBb0lQYz4-9EhmnuSgRsYosOeIlQNwCJKWokYeCVX2-hdsLsP0J8mDhnEmj5MNyaGTDrjb93HIgJnvhcqQnbyOmGyZIHvDyB0lEqib4qfD4_X6z2Xcn-L47IqoXW-up91imXwuprRb2ZNEgzOCot4LCVvdHrhmn8iTvjoAwh1JlZDMLiItM-mtOxJBq6nEJXjJjJgHrOsiNcJr8sl0M78nXfNpg78ULyuaX8Lty52fd-b_aJfJXK3wOKBuVw_-0W00?></g></svg>